{"glyphs":{"B":{"ha":744,"x_min":-47,"x_max":826,"o":"m 804 1083 q 825 932 824 1013 q 826 896 826 914 q 824 858 825 878 q 822 841 822 850 q 819 822 821 832 q 818 813 818 817 q 817 803 818 808 l 804 732 q 798 700 801 715 q 790 671 794 685 q 774 607 783 639 l 765 581 l 760 567 q 749 539 754 551 q 736 514 743 526 q 729 501 733 507 q 722 488 725 494 q 739 342 747 417 q 731 297 736 319 q 715 254 725 275 l 708 239 l 700 222 q 692 207 696 215 q 682 192 688 199 q 637 134 663 161 q 582 86 611 107 q 457 24 525 44 q 394 10 426 14 q 329 4 363 6 l 324 4 q 204 32 263 4 q 121 6 167 6 q 81 10 101 6 q -21 110 6 26 q -19 328 -47 193 l 186 1299 q 175 1326 179 1310 q 179 1357 171 1342 q 195 1374 183 1365 q 231 1383 207 1383 q 275 1378 250 1383 q 325 1367 300 1374 q 351 1372 336 1369 q 390 1375 367 1375 q 542 1350 454 1375 q 579 1338 561 1344 q 617 1321 597 1331 l 642 1308 l 642 1307 l 650 1303 q 656 1299 653 1301 l 664 1293 q 688 1274 676 1283 q 711 1253 700 1264 q 772 1167 744 1217 q 790 1127 782 1147 q 804 1083 797 1107 m 757 864 q 759 897 758 881 q 758 931 760 914 q 753 1001 757 968 q 739 1065 749 1033 q 726 1103 733 1085 q 713 1136 719 1121 q 690 1174 701 1157 q 663 1207 678 1192 q 626 1239 644 1224 l 619 1243 q 615 1246 618 1243 l 604 1251 l 588 1260 q 524 1286 551 1279 q 390 1307 446 1307 q 368 1306 376 1307 q 353 1304 360 1306 q 342 1301 346 1303 q 319 1299 332 1296 l 315 1300 q 284 1307 300 1303 q 254 1314 268 1311 q 254 1297 256 1306 l 46 314 q 38 149 25 214 q 94 75 51 85 q 108 73 101 74 q 121 72 114 72 q 175 94 156 72 q 200 106 186 106 q 218 100 211 106 q 269 78 242 86 q 324 71 296 71 l 328 71 q 438 88 386 74 q 493 110 467 97 q 543 140 519 122 q 626 228 592 176 q 634 241 631 235 q 642 254 638 247 q 644 260 643 257 q 647 267 646 264 l 654 281 q 672 350 668 311 q 653 478 681 415 q 657 511 646 496 q 667 527 663 518 q 678 544 672 536 q 688 567 683 556 q 697 590 693 578 l 704 611 l 710 626 q 718 655 714 640 q 725 686 722 669 q 731 714 728 700 q 738 744 735 728 l 751 814 q 752 822 751 818 q 753 831 753 826 l 757 864 m 451 401 q 453 398 453 399 q 456 394 454 397 q 458 375 460 385 q 457 365 458 368 q 454 360 454 360 l 453 356 q 449 350 450 353 q 446 344 449 347 q 417 314 432 325 q 375 293 400 301 q 365 290 371 293 q 313 274 335 285 q 275 250 290 263 q 244 219 257 235 q 251 249 247 233 q 258 280 256 265 q 264 306 261 294 q 267 321 267 317 q 268 324 267 322 l 285 408 q 315 435 292 432 l 319 435 q 336 436 325 436 l 339 436 l 340 436 q 369 435 356 436 q 396 431 383 433 q 438 414 424 424 q 444 409 442 411 q 450 404 447 407 l 450 403 q 451 401 451 403 m 356 357 q 375 367 367 361 q 361 369 368 368 q 346 369 354 369 l 342 354 q 349 356 346 356 q 356 357 353 356 m 532 1008 q 540 969 538 990 q 544 928 543 949 q 544 906 544 917 q 543 883 544 894 q 542 872 543 876 q 540 861 542 867 l 539 851 l 528 786 q 522 760 525 772 q 517 736 519 747 q 504 690 510 711 l 500 675 l 500 674 l 499 674 l 499 671 q 486 656 496 663 q 469 647 481 650 l 465 647 l 456 647 l 431 647 q 383 636 403 644 q 350 617 364 628 q 324 590 335 604 q 335 642 329 614 q 344 685 342 671 l 344 690 l 422 1054 q 439 1076 425 1069 q 467 1079 450 1083 q 501 1056 478 1075 q 532 1008 524 1038 m 476 889 q 478 906 478 897 q 478 925 478 915 q 476 947 476 936 q 472 969 475 958 l 418 714 l 442 714 q 447 731 444 722 q 451 751 449 740 q 457 774 454 763 q 463 799 460 786 l 475 871 q 476 879 475 875 q 476 889 476 883 z "},"C":{"ha":657,"x_min":-35,"x_max":739,"o":"m 738 1092 q 731 1049 738 1072 q 690 982 718 1007 q 594 943 649 943 q 560 947 578 943 q 458 1004 504 961 q 436 1026 444 1015 q 403 949 414 996 q 401 942 401 946 q 400 936 401 939 l 397 921 l 390 881 l 378 801 q 366 725 371 764 q 354 649 361 686 q 341 561 347 606 q 328 472 335 517 q 321 428 325 449 q 314 388 317 407 l 303 328 q 306 326 304 326 q 317 325 310 325 q 333 328 321 325 q 358 335 344 332 q 382 342 371 339 q 397 347 393 346 l 400 349 q 435 363 417 356 q 476 368 454 369 q 524 350 500 367 q 554 304 544 332 q 561 239 565 274 q 555 203 561 226 q 532 153 549 181 l 528 146 q 526 142 526 143 q 524 139 525 142 l 522 138 q 516 128 519 132 q 510 119 513 124 q 476 83 493 99 q 378 24 435 46 q 275 7 329 7 q 260 7 268 7 q 244 8 251 7 q 229 10 235 8 l 228 10 q 211 13 217 13 q 179 21 201 14 q 103 53 140 31 q 32 111 63 76 q -14 188 1 146 q -35 276 -31 229 q -35 299 -35 288 q -33 321 -35 310 q -33 333 -33 328 q -32 343 -32 338 l -31 354 l -29 356 l -14 446 q -6 485 -10 465 q 0 526 -3 504 q 13 611 7 568 q 25 696 19 654 q 38 776 32 736 q 50 856 43 815 l 64 940 l 74 996 l 76 1010 q 83 1038 78 1022 q 122 1144 99 1094 q 152 1201 136 1175 q 188 1250 168 1226 q 238 1301 208 1278 q 244 1307 240 1304 q 253 1313 249 1310 q 256 1315 254 1314 q 261 1319 258 1317 q 266 1322 264 1321 q 271 1325 268 1324 q 290 1338 281 1332 q 310 1349 299 1343 q 485 1381 392 1389 q 572 1358 529 1376 q 646 1308 614 1339 q 732 1153 708 1247 l 732 1151 q 735 1135 735 1143 q 738 1121 736 1128 q 738 1106 738 1113 q 738 1092 739 1099 m 675 1094 q 674 1103 675 1099 q 674 1114 674 1108 q 672 1126 672 1121 q 669 1136 672 1131 l 669 1138 l 669 1139 q 601 1261 653 1214 q 478 1317 550 1310 q 406 1313 442 1319 q 338 1290 369 1307 q 322 1283 329 1288 q 306 1272 314 1278 q 299 1267 303 1271 q 292 1263 293 1264 q 279 1251 286 1258 q 236 1210 258 1235 q 206 1167 221 1189 q 179 1117 192 1144 q 144 1021 158 1071 q 141 1008 142 1014 q 139 996 140 1003 l 133 972 l 126 931 l 113 846 q 100 766 106 806 q 89 686 94 726 q 76 601 82 644 q 63 517 69 558 q 56 474 60 494 q 50 435 53 454 l 33 344 l 32 335 q 31 326 31 331 q 29 317 31 322 l 29 281 q 34 244 31 261 q 44 211 38 228 q 136 108 71 146 q 165 94 150 100 q 197 82 181 88 q 212 78 206 79 q 224 75 218 76 q 231 74 226 75 q 238 74 235 74 l 239 72 q 250 71 246 72 l 275 71 q 317 74 296 71 q 357 85 338 78 q 397 103 378 92 q 433 131 417 115 q 447 144 440 138 q 460 158 453 151 q 469 172 465 167 l 469 174 q 472 178 472 176 l 478 188 q 494 222 490 207 q 499 244 497 238 q 494 283 501 267 q 489 294 492 290 q 483 300 486 297 q 472 304 479 304 l 471 304 q 449 300 460 304 q 426 290 439 296 l 424 289 q 404 282 419 286 q 372 274 389 278 q 341 265 356 269 q 321 261 326 261 l 318 261 q 281 248 294 257 q 261 229 268 239 q 251 207 254 218 q 239 240 242 222 q 235 274 236 258 q 235 308 233 290 l 236 307 l 236 310 l 236 311 l 236 317 l 251 399 q 258 439 254 418 q 265 482 261 460 q 278 571 272 526 q 292 658 285 615 q 303 734 297 696 q 314 811 308 772 l 328 892 l 338 949 l 342 965 q 364 1027 350 997 q 393 1076 378 1057 q 401 1086 397 1082 q 408 1094 406 1090 l 410 1094 l 413 1097 l 414 1099 q 446 1124 425 1110 q 492 1144 467 1139 q 481 1121 483 1135 q 481 1092 478 1110 q 501 1051 485 1074 q 574 1010 536 1018 q 646 1028 618 1000 q 669 1067 663 1043 q 673 1081 672 1074 q 675 1094 674 1088 z "},"D":{"ha":681,"x_min":-36,"x_max":760,"o":"m 744 1050 q 753 963 751 1004 q 758 888 756 922 q 759 814 760 851 q 757 735 758 776 q 732 435 753 579 q 726 396 729 415 q 719 358 722 376 q 713 319 717 340 q 701 275 708 299 q 695 253 699 264 q 686 226 692 242 q 681 213 683 221 q 672 196 678 206 l 672 194 q 663 176 668 186 q 646 151 657 165 q 639 143 644 149 l 625 128 l 619 121 q 608 110 613 114 q 597 100 603 106 q 574 81 586 90 q 550 65 561 72 q 392 7 478 18 q 368 4 381 4 q 344 4 356 4 q 239 19 292 4 q 213 30 226 25 q 189 42 200 35 q 85 18 140 6 q 21 54 47 26 q -19 124 -6 82 q -35 222 -33 167 q -22 342 -36 278 l 183 1292 q 172 1318 176 1303 q 175 1349 168 1333 q 192 1367 181 1358 q 226 1375 203 1375 q 300 1363 254 1375 l 301 1364 q 350 1381 324 1374 q 403 1382 372 1385 q 410 1381 406 1382 q 418 1379 415 1381 q 536 1340 476 1371 q 582 1313 560 1328 q 626 1282 604 1299 q 644 1267 632 1278 q 658 1253 656 1256 l 660 1251 q 674 1235 669 1242 q 683 1224 679 1229 l 683 1222 q 707 1182 700 1200 q 715 1165 711 1174 q 721 1149 718 1157 q 735 1096 731 1119 q 744 1050 740 1072 m 692 738 q 692 885 693 817 q 688 957 690 918 q 679 1039 686 996 q 672 1081 676 1060 q 658 1126 667 1101 q 653 1140 656 1133 q 647 1153 650 1146 q 629 1185 642 1167 q 623 1194 626 1190 q 613 1206 619 1199 q 597 1220 606 1213 q 585 1231 588 1228 q 546 1258 565 1246 q 507 1282 526 1271 q 408 1314 457 1306 q 402 1315 407 1315 q 396 1317 397 1315 q 378 1317 388 1317 q 361 1315 369 1317 q 347 1310 354 1313 q 332 1306 339 1308 q 328 1303 329 1304 q 324 1300 326 1301 q 297 1296 311 1292 q 275 1301 288 1299 q 250 1306 263 1303 q 250 1290 251 1297 l 43 328 q 31 238 32 281 q 38 163 31 196 q 61 109 46 131 q 99 83 76 88 q 164 107 131 75 q 188 117 174 117 q 207 110 197 117 q 260 83 232 92 q 383 72 319 64 q 514 119 456 81 q 553 150 535 135 q 563 158 558 154 q 572 168 567 163 l 589 186 q 593 190 589 186 q 613 224 607 210 q 619 238 617 232 q 624 250 621 244 q 631 273 628 263 q 638 293 635 283 q 648 335 644 315 q 654 369 651 354 q 667 444 660 404 q 692 738 686 585 m 471 1001 q 479 883 478 951 q 479 747 482 821 q 476 690 479 726 q 469 610 472 653 q 460 522 465 567 q 451 440 456 478 q 442 376 446 403 q 438 344 439 350 q 424 321 433 333 q 414 310 418 315 l 397 297 q 382 288 390 292 q 364 278 374 283 l 363 276 q 348 269 356 272 q 331 261 340 265 q 316 253 324 257 q 301 247 308 250 l 296 244 q 265 223 278 233 q 244 204 253 213 q 228 185 235 194 q 235 218 231 200 q 243 251 240 236 q 250 288 247 269 l 251 288 l 401 989 l 406 1003 q 408 1011 406 1006 q 412 1038 411 1026 q 413 1058 413 1050 q 410 1075 411 1068 q 447 1051 433 1072 q 465 1014 460 1031 q 471 1001 468 1010 m 375 365 q 382 419 376 378 q 393 515 388 461 q 403 625 399 569 q 411 719 408 681 l 328 333 q 346 343 338 339 q 361 353 354 347 q 365 356 364 354 q 369 358 367 357 q 375 365 371 361 z "},"E":{"ha":614,"x_min":-14,"x_max":760,"o":"m 604 1386 q 656 1375 631 1386 q 701 1344 681 1364 q 735 1297 721 1324 q 754 1238 749 1269 q 754 1169 760 1201 q 733 1109 749 1136 q 694 1064 718 1082 q 642 1042 671 1046 l 638 1042 q 635 1040 636 1040 l 461 1011 l 378 528 q 430 492 407 525 q 454 389 453 458 q 437 297 454 333 q 389 253 419 261 q 414 208 404 235 q 424 140 424 181 q 396 34 424 68 q 335 0 368 0 l 318 0 l 257 0 q 188 0 218 0 q 129 1 157 0 q 125 2 126 1 q 121 3 124 3 q 117 3 118 3 q 113 4 115 4 q 42 44 72 10 q -1 138 13 78 q -14 248 -14 186 q -3 378 -14 310 l 143 1217 q 125 1228 133 1222 q 113 1246 117 1235 q 113 1275 106 1261 q 133 1297 119 1290 q 163 1310 147 1304 q 166 1310 163 1310 q 181 1313 169 1311 q 217 1321 193 1315 q 286 1335 242 1326 l 288 1335 l 582 1385 l 583 1385 q 604 1386 590 1386 m 631 1107 q 679 1149 663 1114 q 689 1226 696 1183 q 654 1296 682 1268 q 596 1319 626 1324 q 593 1318 593 1319 l 299 1269 q 252 1260 278 1265 q 207 1250 226 1254 q 210 1244 207 1250 l 210 1242 q 213 1224 214 1232 l 64 367 q 64 153 43 240 q 70 131 65 144 q 82 104 75 117 q 99 82 89 92 q 122 71 108 72 q 128 69 124 69 q 138 68 135 69 q 192 67 164 68 q 257 67 221 67 l 318 67 l 335 68 q 347 84 338 68 q 357 140 357 100 q 347 194 357 178 q 333 211 338 210 l 290 211 q 263 225 274 211 q 257 254 253 239 q 262 272 260 263 q 267 290 264 281 q 300 317 274 317 l 371 317 q 381 336 374 319 q 388 389 388 353 q 379 442 386 425 q 368 461 372 458 l 338 461 l 336 461 l 260 461 q 281 474 271 467 q 297 491 289 481 q 307 517 304 501 l 394 1022 q 385 1043 393 1035 q 368 1056 378 1051 q 344 1063 357 1061 q 376 1066 358 1064 q 411 1071 394 1068 q 451 1078 431 1074 l 625 1107 l 628 1107 l 631 1107 z "},"F":{"ha":565,"x_min":-44,"x_max":742,"o":"m 736 1238 q 736 1169 742 1201 q 715 1109 731 1136 q 675 1064 699 1082 q 622 1042 651 1046 l 619 1042 q 615 1040 618 1040 l 442 1011 l 358 528 l 400 528 q 458 494 432 528 q 483 389 483 461 q 461 288 483 326 q 403 250 439 250 q 355 250 379 250 q 307 249 331 250 q 251 108 286 169 q 110 3 190 3 q 94 4 100 3 q -21 138 10 15 q -21 378 -44 239 l 124 1217 q 106 1228 114 1222 q 93 1246 97 1235 q 94 1275 89 1263 q 115 1297 101 1290 q 143 1310 128 1304 q 147 1310 144 1310 q 161 1313 149 1311 q 199 1319 174 1315 q 272 1332 225 1324 q 389 1353 318 1340 q 564 1385 460 1367 l 565 1385 q 585 1386 571 1386 q 682 1344 639 1386 q 736 1238 725 1301 m 613 1107 q 660 1149 643 1114 q 669 1226 676 1183 q 635 1296 663 1268 q 576 1319 608 1324 q 574 1318 576 1319 q 468 1300 525 1310 q 358 1281 411 1290 q 259 1263 304 1271 q 188 1250 214 1254 q 190 1244 190 1247 q 192 1242 190 1244 q 194 1233 193 1238 q 193 1224 194 1228 l 44 367 q 44 153 24 240 q 51 131 46 144 q 63 104 56 117 q 79 82 69 92 q 103 71 89 72 q 110 69 106 69 q 157 93 136 69 q 193 142 178 117 q 221 201 208 168 q 243 269 233 233 q 231 290 239 282 q 217 304 224 299 q 197 315 208 310 q 244 317 217 317 q 290 315 272 317 q 345 317 318 317 q 400 317 372 317 q 410 336 403 319 q 417 389 417 353 q 409 442 417 425 q 397 461 401 458 l 319 460 l 318 460 q 293 472 306 460 q 286 500 282 483 l 378 1033 q 366 1049 374 1043 q 350 1057 358 1054 q 329 1063 340 1061 q 365 1067 344 1064 q 403 1072 385 1069 q 407 1074 406 1072 l 606 1107 l 610 1107 l 613 1107 z "},"G":{"ha":690,"x_min":-36,"x_max":776,"o":"m 757 1208 q 772 1149 768 1181 q 769 1086 776 1117 q 763 1058 767 1071 q 754 1033 760 1046 l 754 1032 q 740 1013 749 1021 q 734 1003 738 1007 q 728 997 731 1000 q 626 956 686 956 q 590 960 608 956 q 483 1021 538 972 l 474 1031 l 472 1031 l 471 1031 l 467 1031 q 460 1023 464 1028 q 450 1011 456 1018 q 429 969 438 992 q 422 947 424 957 l 421 935 l 356 542 q 394 553 374 553 q 515 554 456 554 q 635 554 574 554 q 680 540 664 554 q 703 505 696 525 q 711 465 710 485 q 713 433 713 444 l 713 428 q 711 379 713 404 q 703 332 710 354 q 681 294 696 310 q 638 276 665 279 l 633 276 l 622 276 l 622 274 q 610 224 618 249 q 592 176 603 200 l 588 168 l 588 167 l 585 163 q 575 146 579 151 q 565 129 569 138 q 553 114 560 121 q 524 83 539 97 q 492 57 508 69 q 416 19 457 33 q 332 3 375 6 q 321 2 326 3 q 308 1 315 1 q 278 3 293 1 q 249 7 264 4 q 239 8 243 8 q 229 10 235 8 q 211 14 218 13 q 200 17 206 17 q 189 21 194 18 q 167 28 179 22 q 14 144 67 64 q -24 231 -12 183 q -32 331 -36 279 q -29 353 -31 342 q -25 378 -28 364 l -15 443 l 78 997 q 85 1032 79 1017 q 93 1065 89 1049 q 104 1096 97 1081 q 167 1214 129 1158 q 274 1321 213 1279 q 310 1342 289 1332 q 330 1353 321 1349 q 350 1361 339 1357 q 397 1375 374 1369 q 444 1383 421 1381 q 464 1385 454 1385 q 483 1386 474 1386 q 631 1350 565 1386 q 705 1292 672 1328 q 757 1211 738 1256 l 757 1208 m 704 1097 q 706 1142 708 1119 q 696 1183 703 1164 q 694 1185 694 1183 l 694 1186 q 599 1292 664 1258 q 483 1318 551 1318 q 467 1318 475 1318 q 451 1317 460 1318 q 374 1299 408 1313 q 358 1292 365 1296 q 340 1283 350 1288 q 326 1275 333 1279 q 311 1265 318 1271 q 263 1225 286 1247 q 221 1175 240 1203 q 167 1072 190 1131 q 150 1017 156 1044 q 147 1003 147 1010 q 143 986 146 996 l 40 365 q 36 344 38 354 q 35 325 35 335 q 69 182 28 243 q 120 128 89 151 q 189 92 151 106 q 208 85 203 86 q 218 82 213 83 q 228 79 224 81 q 235 77 232 78 q 243 76 239 76 q 258 72 247 75 q 328 69 297 68 q 453 113 399 74 q 501 156 478 131 l 518 181 q 522 188 521 183 q 526 194 524 192 l 531 204 q 556 285 549 243 q 558 299 557 292 q 560 313 558 306 q 570 334 561 325 q 593 343 579 343 l 631 343 l 633 343 q 640 353 638 344 q 644 375 643 363 q 646 402 646 388 q 646 428 646 417 l 646 433 q 642 476 646 467 q 638 488 638 486 l 635 488 l 633 488 q 514 488 572 488 q 396 486 456 488 q 383 481 389 486 q 375 472 378 476 q 366 451 371 465 q 364 414 361 438 q 369 377 365 390 q 379 357 374 364 q 382 347 382 349 q 399 323 389 336 q 422 303 410 310 q 399 290 413 296 q 371 283 388 286 q 331 283 354 281 l 328 283 q 317 283 324 283 q 299 285 310 283 q 273 290 282 288 q 257 303 264 293 q 251 328 250 315 l 251 329 l 263 394 l 356 954 l 356 956 l 357 961 q 367 992 361 981 q 394 1049 376 1022 q 406 1063 400 1057 l 404 1063 q 447 1103 425 1085 q 490 1133 467 1118 q 536 1154 513 1147 q 518 1128 524 1142 q 514 1101 513 1117 q 531 1069 515 1085 q 606 1025 569 1033 q 626 1022 619 1022 q 681 1044 656 1022 q 688 1053 686 1050 q 693 1061 690 1056 q 699 1078 697 1069 q 704 1097 701 1088 m 332 331 q 344 329 339 329 q 346 331 349 329 q 333 348 338 336 q 326 372 328 360 q 324 396 324 385 q 324 410 324 407 q 322 408 322 410 q 319 399 322 408 l 308 338 q 319 331 308 331 q 332 331 325 329 m 324 410 q 322 408 322 410 q 319 399 322 408 l 308 338 q 319 331 308 331 q 332 331 325 329 q 344 329 339 329 q 346 331 349 329 q 333 348 338 336 q 326 372 328 360 q 324 396 324 385 q 324 410 324 407 z "},"H":{"ha":732,"x_min":-46,"x_max":851,"o":"m 847 1207 q 846 1204 847 1206 l 704 271 q 679 174 696 222 q 637 86 663 125 q 578 24 611 47 q 503 0 544 0 q 493 1 497 0 q 483 1 489 1 q 379 80 417 11 q 344 256 342 149 l 318 256 q 292 163 310 208 q 249 81 274 117 q 190 22 224 44 q 118 0 157 0 q 109 1 114 0 q 100 1 104 1 q 10 57 46 10 q -34 172 -22 101 q -33 325 -46 242 l 115 1297 q 103 1324 108 1308 q 106 1356 97 1339 q 164 1385 118 1385 q 209 1381 183 1385 q 261 1371 235 1376 q 307 1363 286 1367 q 375 1342 344 1357 q 426 1307 406 1328 q 458 1261 447 1286 q 464 1210 468 1236 q 463 1207 464 1210 l 463 1204 l 361 540 l 383 540 l 500 1297 q 487 1324 492 1308 q 489 1356 482 1339 q 547 1385 501 1385 q 593 1381 568 1385 q 644 1371 618 1376 q 690 1363 669 1367 q 758 1342 728 1357 q 810 1307 789 1328 q 841 1261 831 1286 q 847 1210 851 1236 l 847 1207 m 779 1222 q 754 1265 782 1242 q 681 1296 726 1289 q 632 1304 657 1299 q 600 1310 617 1307 q 569 1314 583 1313 q 569 1299 572 1307 l 447 499 q 431 475 444 482 q 407 471 419 468 q 374 472 400 471 q 321 472 349 472 q 296 483 304 472 q 288 511 285 496 l 394 1214 l 394 1215 q 395 1217 394 1217 q 396 1219 396 1218 l 396 1222 q 370 1265 399 1242 q 296 1296 342 1289 q 249 1304 272 1299 q 217 1310 233 1307 q 185 1314 200 1313 q 186 1299 186 1310 l 35 314 q 32 188 24 246 q 64 99 40 131 q 110 69 85 74 l 118 69 q 186 111 156 69 q 236 211 217 153 q 240 235 238 219 q 242 272 243 251 q 237 317 242 293 q 219 368 232 342 q 226 356 221 364 q 242 341 232 349 q 269 328 253 333 q 308 324 285 322 q 344 324 326 324 q 381 325 363 324 q 382 324 382 325 q 408 328 397 324 q 426 340 419 333 q 440 358 435 347 q 422 260 426 306 q 415 194 417 214 q 442 108 422 142 q 493 69 463 74 l 503 69 q 548 88 526 69 q 587 136 569 106 q 617 204 604 167 q 636 282 629 242 l 779 1214 l 779 1215 l 779 1219 l 779 1222 m 219 368 q 218 371 218 369 q 219 368 218 371 z "},"I":{"ha":317,"x_min":-42,"x_max":431,"o":"m 317 931 q 379 887 357 913 q 397 831 401 861 l 397 828 l 396 826 l 300 190 q 279 121 293 154 q 243 61 265 88 q 126 4 194 4 q 115 4 121 4 q 104 6 110 4 q -10 89 29 17 q -29 240 -42 154 l 71 897 q 58 917 64 906 q 58 943 53 928 q 110 969 68 969 q 153 965 128 969 q 113 1021 128 989 q 97 1089 97 1053 q 121 1156 97 1125 q 172 1218 144 1188 q 213 1265 194 1242 q 232 1308 232 1288 q 246 1345 232 1336 q 271 1354 260 1354 q 283 1353 275 1354 q 304 1341 292 1351 q 333 1308 317 1331 q 374 1246 350 1286 q 389 1215 379 1233 q 408 1174 399 1196 q 424 1129 418 1151 q 431 1089 431 1107 q 398 990 431 1033 q 317 931 365 947 m 219 1174 q 179 1128 197 1150 q 161 1089 161 1107 q 192 1016 161 1046 q 264 986 222 986 q 337 1016 307 986 q 367 1089 367 1046 q 359 1125 367 1103 q 340 1172 351 1147 q 314 1222 328 1197 q 288 1264 300 1246 q 258 1217 276 1239 q 219 1174 239 1196 m 333 840 q 308 863 332 847 q 238 886 283 879 q 215 890 226 889 q 193 894 204 892 q 164 899 178 897 q 136 904 150 901 l 136 901 l 33 231 q 47 118 25 164 q 71 88 56 103 q 113 68 86 72 l 126 68 q 194 103 165 68 q 221 147 210 122 q 236 200 232 172 l 333 835 l 333 840 m 168 1264 q 144 1281 153 1268 q 140 1310 136 1294 q 146 1320 142 1313 q 171 1351 150 1328 q 199 1379 193 1375 q 210 1383 204 1383 q 224 1375 219 1383 q 226 1369 225 1374 q 224 1358 226 1365 q 212 1328 213 1336 q 213 1313 211 1319 q 214 1289 217 1303 q 178 1263 207 1263 q 168 1264 171 1263 m 181 1313 q 175 1306 178 1310 q 171 1301 172 1303 q 172 1297 171 1299 q 174 1296 172 1296 q 176 1294 174 1296 q 181 1294 179 1293 q 183 1297 183 1296 l 183 1303 q 181 1313 181 1311 z "},"J":{"ha":746,"x_min":-67,"x_max":871,"o":"m 863 1135 q 826 1033 857 1075 q 751 981 796 992 q 736 889 743 935 q 722 800 729 843 l 676 503 q 665 431 671 469 q 651 351 658 392 q 643 310 647 329 q 636 274 639 292 l 631 246 q 625 226 628 235 q 619 207 622 217 q 604 169 613 188 q 585 135 596 151 q 461 31 538 65 q 336 7 403 7 q 319 7 328 7 q 303 8 311 7 q 284 10 294 8 q 265 13 274 11 l 249 15 q 242 17 246 17 q 235 19 238 18 q 165 44 196 28 q 128 65 146 53 q 96 89 111 76 q 68 116 81 101 q 43 147 56 131 q 19 188 29 167 q -1 232 8 208 q -5 242 -4 238 q -8 253 -6 247 q -10 257 -8 256 q -12 268 -11 263 q -15 279 -14 274 q -17 287 -17 283 q -18 294 -18 290 q -19 301 -19 297 q -21 308 -19 306 q -22 322 -22 315 q -22 335 -22 328 q -15 418 -24 376 l -15 419 q -12 569 -67 442 q 79 678 36 678 q 94 674 88 678 l 96 674 l 97 674 q 206 626 151 650 q 315 578 260 601 q 333 567 325 572 l 378 858 q 391 940 385 899 q 404 1024 397 981 q 331 1037 365 1031 q 285 1049 296 1043 q 253 1080 265 1058 q 235 1129 240 1101 q 231 1189 231 1157 q 239 1251 232 1221 q 286 1349 254 1314 q 361 1385 318 1385 q 367 1384 364 1385 q 372 1383 369 1383 l 375 1383 l 376 1383 l 582 1350 q 668 1337 625 1343 q 756 1324 711 1331 q 838 1267 808 1315 q 863 1135 871 1215 m 324 401 q 329 404 326 404 q 331 392 332 404 q 324 364 326 378 q 322 340 321 353 q 328 318 322 328 q 311 335 318 326 q 299 349 304 342 q 293 363 294 357 l 307 379 q 317 392 313 386 q 324 401 322 399 m 796 1142 q 781 1232 801 1197 q 746 1257 767 1254 q 658 1270 701 1264 q 571 1283 614 1276 l 368 1317 l 363 1317 l 361 1317 q 342 1310 350 1317 q 327 1293 333 1303 q 316 1273 321 1283 q 310 1256 311 1263 q 299 1206 301 1231 q 299 1161 297 1182 q 304 1126 300 1140 q 314 1108 308 1113 q 331 1104 318 1107 q 363 1099 344 1101 q 401 1092 381 1096 q 443 1086 422 1089 l 514 1075 q 497 1064 504 1072 q 483 1042 490 1057 q 469 1000 476 1026 q 457 922 463 961 q 444 847 451 883 l 399 550 q 387 481 393 519 q 374 403 381 443 q 365 357 369 378 q 372 310 365 326 q 385 288 378 294 q 404 276 393 279 q 331 274 360 264 q 283 300 301 285 l 282 301 q 279 303 281 303 q 272 311 278 306 q 265 324 269 317 q 254 340 260 332 q 253 342 254 342 q 253 343 253 342 q 249 349 250 346 q 247 351 249 349 q 242 374 240 363 q 256 393 244 386 q 289 439 272 407 q 299 499 306 471 q 288 517 297 514 q 186 562 236 540 q 85 606 136 583 q 69 581 78 597 q 49 542 60 565 q 34 501 39 518 q 28 474 29 483 l 38 468 q 56 451 50 463 q 57 428 61 439 q 54 418 54 419 q 44 338 42 381 q 46 317 44 324 q 47 311 46 314 q 47 306 47 308 q 49 300 49 303 q 50 294 49 297 l 50 293 q 52 285 51 290 q 54 278 53 281 q 56 272 56 275 q 61 256 58 267 q 77 219 68 236 q 97 186 86 201 q 140 140 118 158 q 194 104 167 118 q 250 85 221 90 q 264 82 261 82 l 276 79 q 292 76 283 78 q 308 75 300 75 q 435 93 382 68 q 528 171 493 117 q 544 199 538 185 q 556 229 550 214 q 560 244 558 236 q 565 261 563 253 l 571 288 q 577 322 574 304 q 585 363 581 340 q 598 442 592 403 q 610 513 604 481 l 656 810 q 672 911 664 858 q 689 1017 679 964 q 701 1036 692 1028 q 722 1044 710 1044 q 769 1069 747 1044 q 796 1142 792 1093 m 328 318 q 322 340 322 328 q 324 364 321 353 q 331 392 326 378 q 329 404 332 404 q 324 401 326 404 q 317 392 322 399 q 307 379 313 386 l 293 363 q 299 349 294 357 q 311 335 304 342 q 328 318 318 326 z "},"K":{"ha":686,"x_min":-50,"x_max":782,"o":"m 728 1272 q 774 1179 782 1231 l 774 1176 l 774 1174 l 664 414 q 651 392 661 400 l 574 333 l 624 282 q 645 245 636 268 q 652 194 654 222 q 635 133 650 165 q 585 67 619 100 q 450 4 519 4 q 369 38 400 4 l 268 143 q 199 50 239 82 q 113 18 158 18 q 93 19 100 18 q 4 74 42 25 q -39 186 -28 117 q -37 338 -50 256 l 110 1299 q 97 1324 103 1310 q 99 1356 92 1339 q 157 1385 113 1385 q 202 1381 176 1385 q 253 1371 228 1376 q 276 1367 265 1368 q 299 1364 288 1365 q 365 1342 335 1357 q 417 1308 396 1328 q 474 1336 429 1336 q 519 1332 493 1336 q 571 1322 544 1328 q 594 1318 583 1319 q 615 1315 606 1317 q 728 1272 683 1307 m 707 1190 q 688 1218 707 1203 q 606 1249 654 1242 q 583 1251 594 1250 q 558 1256 571 1253 q 528 1261 543 1258 q 499 1265 513 1264 q 497 1257 499 1260 l 404 606 l 404 604 q 403 603 404 603 q 403 601 403 603 q 373 538 394 561 q 328 503 351 514 q 269 485 301 489 q 285 576 276 533 q 296 632 293 619 l 385 1215 l 385 1217 q 386 1221 386 1218 l 386 1224 q 360 1266 388 1243 q 288 1296 333 1289 q 265 1300 276 1299 q 240 1304 253 1301 q 209 1310 225 1307 q 178 1315 193 1313 q 179 1300 179 1311 l 29 328 q 28 203 19 261 q 60 114 36 146 q 103 86 75 90 q 108 85 106 86 q 113 85 110 85 q 174 119 144 85 q 225 214 204 153 q 249 236 229 232 q 257 238 251 238 q 281 226 272 238 l 418 85 q 450 72 431 72 q 538 117 493 72 q 569 156 558 138 q 583 190 581 174 q 583 217 586 206 q 575 235 581 228 l 499 314 q 489 340 489 324 q 503 364 492 356 l 599 438 l 706 1182 q 707 1183 707 1182 l 707 1188 l 707 1190 z "},"L":{"ha":433,"x_min":-40,"x_max":457,"o":"m 365 300 q 436 240 417 281 q 444 154 457 200 q 440 142 442 147 q 436 132 439 138 q 435 131 436 132 l 435 129 q 432 124 433 126 q 428 117 431 121 q 424 113 426 115 q 418 106 421 110 q 396 83 408 94 q 368 61 383 72 q 303 26 346 46 q 203 7 260 7 l 201 7 q 101 29 146 7 q 17 103 50 54 q -31 219 -15 151 q -39 347 -40 274 l -37 408 q -36 424 -36 418 q -35 435 -36 429 q -30 474 -32 456 q -25 510 -28 492 l -25 511 q -8 623 -17 568 q 10 732 1 678 l 19 788 q 42 928 32 863 q 64 1061 53 994 q 75 1133 71 1101 q 83 1196 79 1165 q 92 1253 88 1224 q 99 1315 96 1283 q 90 1331 93 1322 q 88 1351 86 1340 q 101 1378 90 1368 q 133 1388 113 1388 q 147 1387 140 1388 q 161 1385 153 1386 q 233 1365 190 1379 q 258 1358 246 1363 q 282 1351 271 1354 q 401 1290 360 1333 q 435 1194 442 1247 l 435 1190 l 435 1188 q 417 1065 426 1125 q 396 933 407 1004 l 335 558 q 325 498 329 528 q 317 438 321 468 l 311 397 l 311 393 l 310 350 l 310 344 q 310 342 310 343 q 311 340 311 342 q 313 338 313 339 q 314 335 313 336 q 326 321 315 329 q 333 315 329 318 q 342 310 338 313 l 344 308 q 347 306 346 307 q 350 304 349 306 l 354 303 q 365 300 357 303 m 381 172 q 378 208 386 193 q 342 238 367 228 q 338 238 339 238 q 335 239 336 239 l 331 240 q 297 249 319 242 q 252 267 275 256 q 213 297 229 279 q 200 339 197 314 l 214 332 q 229 325 221 329 q 249 318 238 321 q 247 319 247 318 q 242 350 242 336 l 244 396 l 244 404 l 246 418 l 250 447 q 259 508 254 478 q 268 569 264 538 l 331 943 q 351 1074 342 1014 q 368 1196 360 1133 l 368 1197 l 368 1201 q 369 1204 368 1201 q 340 1256 372 1233 q 267 1288 307 1278 q 241 1294 254 1290 q 215 1301 228 1297 q 190 1308 203 1304 q 167 1315 178 1313 q 158 1249 163 1282 q 150 1186 154 1215 q 141 1124 146 1157 q 129 1050 136 1090 q 108 917 119 983 q 86 778 97 851 l 76 721 q 58 613 67 668 q 42 501 50 558 l 40 500 q 36 465 38 482 q 32 428 35 447 q 31 418 31 424 q 29 406 31 413 l 28 347 q 36 233 26 279 q 72 140 46 182 q 131 89 96 107 q 201 74 164 74 l 201 40 l 201 74 q 329 117 269 74 q 368 150 354 133 q 374 157 372 154 l 375 158 q 376 161 375 160 q 381 172 379 169 z "},"M":{"ha":881,"x_min":-46,"x_max":1000,"o":"m 839 1363 q 907 1342 876 1357 q 958 1307 938 1328 q 990 1261 979 1286 q 996 1210 1000 1236 q 933 799 963 988 q 908 636 921 718 q 885 483 896 554 q 865 356 874 411 q 853 271 857 300 q 828 174 844 222 q 785 86 811 125 q 726 24 760 47 q 651 0 693 0 q 641 1 646 0 q 632 1 636 1 q 517 103 553 14 q 463 62 493 79 q 397 44 432 44 q 326 67 358 44 q 269 114 293 89 q 118 0 210 0 q 109 1 114 0 q 99 1 104 1 q 10 57 43 10 q -35 172 -24 101 q -33 325 -46 242 l 115 1297 q 103 1324 108 1308 q 104 1356 97 1339 q 164 1385 118 1385 q 209 1381 183 1385 q 261 1371 235 1376 q 306 1363 289 1367 q 417 1314 374 1351 q 464 1228 461 1276 q 467 1201 465 1219 q 472 1144 468 1182 q 479 1047 475 1107 q 490 897 483 988 q 537 1018 513 956 q 583 1136 561 1081 q 621 1235 604 1192 q 646 1301 638 1279 q 635 1326 639 1313 q 638 1356 631 1340 q 696 1385 650 1385 q 741 1381 715 1385 q 793 1371 767 1376 q 839 1363 818 1367 m 928 1221 q 903 1265 931 1242 q 828 1296 875 1289 q 781 1304 804 1299 q 749 1310 765 1307 q 718 1314 732 1313 q 717 1297 721 1304 l 717 1293 q 706 1266 717 1292 q 679 1197 696 1240 q 642 1099 663 1154 q 599 985 621 1043 q 554 869 576 926 q 514 765 532 813 q 486 695 506 742 q 431 578 467 649 q 433 615 432 592 q 433 739 435 654 l 433 740 l 433 743 q 422 903 428 821 q 410 1053 415 985 q 401 1167 404 1121 q 396 1221 397 1213 l 396 1226 q 367 1267 394 1246 q 296 1296 340 1289 q 249 1304 274 1297 q 216 1310 232 1307 q 185 1314 200 1313 q 185 1299 188 1307 l 35 314 q 32 188 24 246 q 64 99 40 131 q 108 69 82 74 l 118 69 q 178 101 150 69 q 229 190 207 133 q 232 197 229 192 q 242 228 238 213 q 249 257 247 244 q 257 242 251 250 q 282 206 267 225 q 286 202 285 204 q 290 197 288 200 q 308 174 296 189 q 334 147 319 160 q 365 124 349 133 q 397 114 382 114 q 447 135 418 114 q 504 192 476 156 l 506 194 q 507 196 507 194 q 522 218 515 207 q 533 238 528 229 q 544 256 539 247 q 551 224 547 242 q 561 192 556 207 q 567 178 564 186 q 569 164 567 175 q 571 158 571 160 q 572 153 571 156 q 574 149 572 150 q 597 99 581 125 q 642 69 613 74 l 651 69 q 697 88 675 69 q 735 135 718 106 q 765 203 753 165 q 785 281 778 242 q 791 321 785 281 q 807 427 797 361 q 830 577 817 493 q 856 749 843 661 q 883 922 869 838 q 906 1072 896 1006 q 922 1179 915 1139 q 928 1221 928 1219 z "},"N":{"ha":682,"x_min":-54,"x_max":769,"o":"m 608 1363 q 676 1342 646 1357 q 728 1307 707 1328 q 759 1261 749 1286 q 765 1210 769 1236 q 703 799 732 988 q 678 636 690 718 q 654 483 665 554 q 634 356 643 411 q 621 271 625 300 q 596 173 614 221 q 551 88 578 125 q 488 26 524 50 q 406 1 451 3 q 367 13 386 1 q 330 42 347 24 q 297 83 313 60 q 268 128 281 106 q 198 33 239 67 q 110 0 157 0 q 101 1 106 0 q 90 1 96 1 q 1 57 35 10 q -43 172 -32 101 q -42 325 -54 242 l 107 1297 q 94 1324 100 1308 q 96 1356 89 1339 q 156 1385 110 1385 q 201 1381 175 1385 q 253 1371 226 1376 q 297 1363 281 1367 q 353 1343 324 1360 q 411 1307 383 1326 q 402 1330 404 1318 q 407 1356 400 1342 q 465 1385 419 1385 q 510 1381 485 1385 q 563 1371 536 1376 q 608 1363 588 1367 m 697 1221 q 672 1265 700 1242 q 597 1296 644 1289 q 550 1304 575 1297 q 517 1310 533 1307 q 486 1314 501 1313 q 486 1299 489 1307 l 479 1247 q 468 1193 476 1222 q 443 1144 460 1164 q 442 1168 446 1156 q 431 1193 439 1179 q 407 1224 422 1207 q 382 1243 397 1232 q 350 1265 367 1254 q 317 1285 333 1276 q 288 1296 300 1293 q 239 1304 267 1297 q 208 1310 224 1307 q 176 1314 192 1313 q 176 1299 179 1307 l 26 314 q 24 188 15 246 q 56 99 32 131 q 100 69 74 74 l 110 69 q 174 107 146 69 q 219 190 203 144 q 226 211 222 199 q 234 238 231 224 q 241 265 238 251 q 244 290 244 279 q 260 283 250 292 q 279 258 267 276 q 308 199 292 239 q 363 109 335 147 q 406 71 390 71 q 459 89 435 71 q 502 137 483 107 q 534 204 521 167 q 553 281 547 242 q 559 321 553 281 q 575 427 565 361 q 598 577 585 493 q 624 749 611 661 q 651 922 638 838 q 674 1072 664 1006 q 691 1179 685 1139 q 697 1221 697 1219 z "},"O":{"ha":622,"x_min":-44,"x_max":685,"o":"m 650 942 q 680 767 675 864 q 669 568 685 669 q 645 444 658 501 q 614 333 632 386 q 590 267 603 297 q 561 210 576 238 l 549 188 q 540 175 544 181 q 533 163 536 169 q 517 141 525 151 q 500 119 508 131 q 417 49 463 75 q 318 10 368 18 q 265 4 296 4 q 214 8 239 4 q 163 23 188 14 q 115 47 138 32 q 38 119 69 75 q 10 163 22 139 q -12 215 -3 188 q -21 241 -17 228 q -28 268 -25 254 q -31 282 -29 275 q -33 296 -32 289 l -37 319 q -42 382 -40 350 q -44 451 -44 414 q -38 562 -43 506 q -22 686 -33 618 q -3 794 -14 740 q 22 907 8 849 q 36 963 29 936 q 51 1017 43 990 q 60 1045 56 1032 q 68 1072 64 1058 q 76 1099 72 1085 q 88 1131 81 1114 q 91 1139 90 1135 q 94 1147 92 1143 l 99 1157 l 99 1158 l 103 1167 q 121 1201 111 1188 q 143 1238 132 1221 q 167 1271 154 1256 q 199 1305 181 1286 q 247 1343 218 1324 q 314 1374 276 1363 q 406 1385 360 1389 l 411 1383 q 475 1367 446 1379 q 525 1336 504 1353 q 558 1303 544 1321 q 581 1264 571 1286 q 594 1150 607 1207 q 557 1085 585 1113 q 590 1058 571 1078 q 650 942 628 1014 m 603 579 q 613 762 618 672 q 586 922 608 851 q 540 1013 567 981 q 511 1032 524 1032 l 507 1032 q 495 1026 504 1031 q 475 997 486 1021 q 458 955 465 979 q 442 894 450 931 q 424 806 435 867 q 403 675 414 746 q 371 485 383 560 q 350 388 358 411 q 340 359 346 374 q 322 336 333 344 l 322 335 q 283 301 296 318 q 264 269 269 283 q 258 239 258 254 q 242 289 246 261 q 239 342 238 317 q 246 400 240 371 l 246 399 q 260 497 250 436 q 281 625 269 557 q 303 763 292 693 q 325 890 315 833 q 341 982 335 946 q 347 1019 347 1018 q 396 1099 360 1083 q 412 1103 400 1100 q 436 1108 424 1106 q 459 1113 449 1111 q 471 1114 469 1114 q 507 1129 494 1118 q 529 1165 524 1143 q 519 1236 538 1200 q 482 1285 507 1264 q 449 1306 467 1297 q 404 1317 426 1315 l 400 1318 l 385 1318 q 333 1310 358 1318 q 307 1300 319 1306 q 283 1286 294 1294 q 245 1256 260 1271 q 219 1228 231 1242 q 199 1200 208 1214 q 179 1168 189 1186 q 172 1153 175 1161 q 164 1139 168 1146 l 160 1131 l 157 1122 q 153 1114 154 1118 q 150 1107 153 1110 q 140 1077 144 1092 q 132 1051 135 1063 q 115 997 124 1026 q 101 946 108 972 q 88 892 94 919 q 63 781 74 835 q 44 675 51 728 q 28 556 33 610 q 24 450 24 503 q 24 386 22 415 q 29 329 26 357 l 33 307 q 35 295 35 300 q 38 283 36 290 q 44 260 40 272 q 50 238 47 249 q 92 158 67 192 q 150 104 117 125 q 225 75 185 81 q 306 75 268 67 q 382 106 349 85 q 449 163 421 128 q 464 181 457 172 q 478 200 471 190 l 490 221 l 503 242 q 551 356 529 289 q 581 460 568 406 q 603 579 593 514 z "},"P":{"ha":715,"x_min":-49,"x_max":761,"o":"m 757 1015 q 760 978 760 997 q 761 939 760 960 q 759 871 761 906 q 754 796 757 836 q 740 663 749 729 q 715 525 731 596 q 701 453 708 485 q 685 389 693 421 l 681 375 q 678 367 679 371 q 675 358 676 363 q 660 326 669 343 q 642 297 653 311 q 621 268 632 282 q 522 189 582 221 q 371 149 453 151 q 285 157 324 149 q 122 6 231 6 q 86 10 104 6 q 40 28 67 14 q -9 73 13 42 q -40 158 -31 104 q -29 294 -49 211 l 194 1292 q 183 1319 188 1303 q 188 1350 179 1335 q 204 1367 193 1358 q 239 1375 215 1375 q 306 1364 264 1375 q 390 1383 344 1386 l 397 1383 l 399 1383 q 406 1382 404 1383 q 519 1353 461 1378 q 564 1331 543 1342 q 606 1304 585 1319 q 625 1290 617 1297 q 643 1274 633 1282 l 663 1257 q 679 1240 671 1249 q 694 1219 688 1231 q 715 1184 707 1200 q 728 1156 722 1168 q 736 1131 732 1143 q 743 1103 740 1118 q 757 1015 753 1063 m 689 801 q 694 872 692 839 q 696 938 696 906 q 694 975 694 957 q 692 1010 694 993 q 687 1051 689 1033 q 679 1088 685 1069 q 667 1132 675 1110 q 657 1155 663 1143 q 640 1182 651 1167 q 629 1197 635 1190 q 617 1210 624 1203 l 600 1225 q 585 1238 593 1232 q 568 1250 576 1243 q 493 1293 531 1278 q 447 1310 469 1304 q 400 1318 424 1315 l 397 1318 l 394 1318 l 393 1318 l 390 1318 l 388 1318 l 383 1318 q 333 1304 353 1318 q 331 1303 332 1304 l 329 1303 q 303 1297 319 1294 q 281 1303 292 1300 q 260 1308 271 1306 q 260 1289 264 1297 l 33 281 q 24 215 26 249 q 26 153 21 182 q 49 102 32 124 q 100 74 67 81 q 112 71 107 71 q 122 71 117 71 q 140 73 128 71 q 168 88 153 75 q 199 126 183 100 q 229 201 215 153 q 210 227 217 213 q 206 258 203 242 q 224 249 214 254 q 242 240 232 244 q 267 229 253 235 q 274 228 271 229 q 368 214 315 214 q 490 246 435 217 q 572 310 539 272 q 588 332 581 321 q 603 356 596 343 q 608 368 606 363 q 614 381 611 374 q 616 388 615 383 q 618 394 617 392 l 621 406 q 651 538 638 465 q 674 672 665 607 q 689 801 683 736 m 483 994 q 485 968 485 982 q 486 939 486 954 q 485 883 486 913 q 481 821 483 854 q 467 703 476 763 q 446 579 458 643 q 433 517 439 547 q 419 463 426 488 l 419 460 l 418 458 q 417 454 418 456 q 408 436 414 443 q 342 392 383 392 q 300 406 324 392 q 285 440 281 417 l 414 1014 l 413 1014 q 422 1063 419 1046 q 425 1088 425 1079 q 424 1100 425 1097 q 452 1090 442 1101 q 469 1063 463 1078 q 479 1021 476 1044 q 481 1008 481 1014 q 483 994 482 1001 z "},"Q":{"ha":632,"x_min":-46,"x_max":750,"o":"m 733 1193 q 736 1086 750 1142 q 732 1075 733 1081 q 728 1064 731 1069 l 728 1063 q 724 1051 726 1060 q 722 1050 722 1051 q 717 1042 719 1044 q 692 1014 706 1025 q 668 999 681 1006 q 642 989 656 992 q 643 988 642 988 q 689 929 669 964 q 706 771 721 861 q 649 426 678 597 q 588 65 619 254 l 588 64 q 563 24 583 43 q 485 6 542 6 q 428 9 457 6 q 371 17 399 13 l 363 18 q 261 106 276 32 l 260 106 q 242 106 251 106 q 224 107 233 106 l 201 110 l 200 111 l 193 111 q 175 116 183 114 q 158 121 167 118 q 28 197 78 144 q -42 344 -31 258 q -40 426 -46 388 l -6 622 l 65 1033 q 72 1062 68 1049 q 81 1089 75 1075 q 126 1190 97 1142 q 203 1285 158 1243 q 228 1307 215 1296 q 257 1326 242 1318 q 272 1336 264 1332 q 288 1344 281 1340 l 304 1353 l 313 1357 l 314 1357 l 322 1361 q 488 1385 401 1392 q 642 1328 576 1376 q 733 1194 708 1276 l 733 1193 m 674 1103 q 672 1172 682 1136 l 671 1174 l 671 1175 l 671 1176 q 601 1275 651 1240 q 547 1306 578 1294 q 482 1319 517 1317 q 347 1300 411 1326 l 331 1293 q 324 1290 328 1292 q 318 1288 321 1289 q 292 1272 304 1281 q 269 1256 281 1265 q 247 1238 258 1247 q 182 1157 213 1204 q 160 1114 169 1136 q 142 1068 150 1092 q 129 1021 133 1044 l 110 907 l 24 417 q 24 353 19 382 q 40 293 26 321 q 75 242 54 265 q 176 183 117 200 l 206 175 l 225 172 l 232 172 q 245 171 239 171 q 258 171 251 171 l 272 171 q 278 172 275 171 q 283 172 281 172 l 286 172 q 290 174 288 174 q 294 173 293 174 q 299 172 296 172 q 325 178 313 175 q 347 185 338 182 q 367 192 358 189 q 354 158 367 172 q 324 135 342 144 q 331 102 324 115 q 372 83 339 89 l 381 82 q 434 74 407 78 q 485 69 461 69 q 513 72 506 69 q 524 76 521 75 q 585 437 556 265 q 642 782 614 608 q 644 847 649 815 q 629 901 640 878 q 603 936 617 925 q 565 951 585 950 q 540 951 550 953 q 518 944 529 949 q 481 914 499 936 q 453 867 465 894 q 436 811 442 840 q 398 583 417 694 q 363 371 379 471 q 350 351 360 358 q 329 343 340 343 q 310 344 319 344 q 292 346 301 344 q 281 348 285 347 q 272 350 276 349 q 261 353 267 350 q 247 364 253 357 q 242 369 243 365 q 235 383 236 378 q 232 394 232 392 q 233 403 232 400 l 238 429 l 333 983 l 335 988 l 335 989 l 336 993 q 340 1007 338 999 q 362 1057 347 1033 q 392 1096 376 1081 q 394 1097 393 1097 q 396 1099 394 1097 q 446 1145 413 1118 q 515 1179 479 1172 q 493 1153 501 1167 q 483 1128 486 1142 q 490 1100 479 1114 q 501 1090 493 1096 q 576 1050 538 1058 q 600 1047 590 1047 q 650 1065 631 1047 q 664 1079 656 1068 q 667 1082 664 1079 q 668 1088 667 1086 q 671 1094 669 1090 q 674 1103 672 1099 m 504 1008 q 458 1040 483 1019 q 451 1047 456 1043 q 443 1054 447 1050 q 440 1052 442 1053 q 436 1049 439 1051 q 418 1024 428 1040 q 401 988 408 1008 q 399 978 401 983 l 397 971 l 300 411 q 303 410 301 410 q 336 609 318 504 q 372 822 354 714 q 394 894 379 860 q 431 956 408 929 q 492 1004 457 988 l 504 1008 z "},"R":{"ha":647,"x_min":-39,"x_max":726,"o":"m 715 947 q 722 883 719 915 q 725 814 725 850 q 726 751 726 782 q 722 686 725 719 l 718 639 q 717 626 717 632 q 715 615 717 619 q 696 533 710 576 q 614 381 667 446 q 603 367 608 374 q 590 354 597 361 q 596 331 593 344 q 605 298 600 315 q 615 261 610 281 q 633 204 625 233 q 646 150 642 175 q 615 56 654 99 q 571 24 600 40 q 492 4 542 7 l 471 4 q 376 21 415 4 q 331 54 344 35 q 313 90 317 74 q 303 130 310 104 q 285 192 296 156 q 257 124 274 156 q 218 68 240 92 q 169 31 196 44 q 113 17 143 17 q 92 18 99 17 q 24 53 53 25 q -21 126 -6 81 q -37 217 -35 167 q -31 322 -39 268 l 117 1231 q 104 1256 110 1242 q 106 1286 99 1271 q 161 1314 118 1314 q 205 1310 181 1314 q 254 1300 229 1306 q 267 1297 261 1299 q 281 1294 274 1296 l 282 1297 l 282 1299 q 285 1307 282 1299 q 288 1311 285 1308 l 288 1313 q 333 1361 304 1342 q 400 1381 364 1381 l 403 1381 q 471 1364 439 1381 q 475 1361 474 1361 q 479 1358 478 1358 q 551 1303 518 1335 q 613 1232 585 1271 q 683 1088 657 1167 q 702 1019 694 1054 q 715 947 710 985 m 657 690 q 661 813 661 754 q 658 877 660 846 q 651 938 656 908 q 639 1005 646 974 q 622 1067 632 1036 q 560 1194 599 1136 q 446 1303 510 1264 l 444 1303 l 443 1303 q 442 1304 443 1304 q 439 1307 439 1307 l 438 1307 q 403 1317 421 1317 l 401 1317 q 368 1306 381 1314 q 344 1279 353 1296 l 343 1279 l 339 1263 q 338 1257 339 1260 q 338 1251 338 1254 q 337 1249 338 1250 q 336 1247 336 1249 q 342 1221 332 1228 q 358 1213 353 1214 l 275 1229 q 259 1233 268 1232 q 242 1236 250 1233 q 182 1247 210 1243 q 182 1233 183 1239 l 33 311 q 28 223 26 265 q 42 147 31 181 q 63 107 49 128 q 103 82 76 86 l 113 82 q 156 99 135 82 q 192 143 176 115 q 220 205 208 171 q 239 275 232 239 q 253 296 242 288 q 276 301 263 304 q 288 300 279 301 q 300 297 296 299 q 329 274 322 294 l 331 267 q 360 165 349 206 q 376 104 371 124 q 382 94 378 100 q 401 81 386 88 q 428 73 411 76 q 471 69 446 69 l 488 69 q 567 100 544 74 q 581 122 578 111 q 582 139 583 132 q 570 188 578 161 q 554 243 563 215 q 542 281 547 263 q 533 317 536 300 q 526 343 528 332 l 524 356 q 532 388 519 375 q 548 404 540 396 q 563 421 556 413 q 633 553 608 476 q 651 625 646 589 q 652 633 651 629 q 654 644 653 638 l 657 690 m 424 1004 q 453 811 450 925 q 453 760 453 786 q 450 706 453 735 l 447 668 l 446 667 l 446 660 l 446 658 q 441 639 443 649 q 436 619 439 629 q 401 551 424 581 q 388 538 394 544 q 372 525 381 531 q 335 483 346 501 q 319 450 324 464 q 318 421 314 435 q 284 456 292 429 q 278 510 276 482 q 288 582 279 543 l 289 582 l 357 1008 q 386 1035 361 1032 q 419 1014 410 1038 q 422 1009 421 1011 q 424 1004 422 1007 m 385 711 q 387 751 386 732 q 388 790 388 771 l 357 603 q 367 619 363 610 q 375 639 371 628 q 378 653 378 646 q 381 667 379 660 l 383 685 l 385 711 m 361 1213 l 358 1213 l 361 1213 z "},"S":{"ha":610,"x_min":-12,"x_max":744,"o":"m 743 1076 q 744 1068 743 1072 q 744 1060 744 1064 l 744 1032 q 743 1007 743 1019 q 742 979 743 994 q 736 934 739 957 q 731 883 733 911 q 715 786 724 831 q 696 699 707 742 l 696 697 q 661 619 685 654 q 604 561 638 583 q 569 544 588 550 q 533 536 551 538 q 461 550 499 532 q 407 592 432 564 q 388 617 396 604 q 372 646 379 631 q 361 778 344 710 q 362 780 361 779 q 363 783 363 781 q 364 788 363 786 q 377 860 371 822 q 390 940 383 897 q 392 951 392 946 q 393 961 392 956 q 391 956 392 958 q 389 950 390 953 q 367 886 378 919 q 349 815 357 853 q 336 744 342 778 q 334 726 335 735 q 333 711 333 718 q 333 705 333 708 q 332 699 332 701 l 332 696 l 332 694 l 333 692 q 335 685 333 688 q 337 678 336 682 q 340 668 338 674 q 351 648 344 658 q 364 626 357 638 q 404 574 382 600 q 433 540 418 557 q 467 506 449 524 l 504 468 l 506 467 l 507 465 l 514 458 l 518 454 l 531 442 l 551 413 q 567 383 560 399 q 581 351 575 368 q 592 219 601 285 q 572 151 588 185 q 553 119 564 135 q 531 89 543 103 q 476 46 507 64 q 419 21 450 29 q 413 19 417 19 q 406 18 408 19 l 400 17 q 398 16 399 17 q 396 15 397 15 l 378 13 q 360 10 368 11 q 343 10 351 10 q 326 8 335 8 q 308 8 317 8 q 261 10 285 8 q 215 18 238 13 q 165 35 188 25 q 129 51 143 44 q 111 63 118 58 q 101 68 104 67 l 99 71 q 60 107 74 86 q 36 157 43 128 q 35 204 31 183 q 44 240 39 225 q 81 283 56 272 q 138 297 107 293 q 160 298 143 297 q 200 297 176 299 q 82 426 129 360 q 22 533 44 481 q 1 599 10 564 q -3 616 -1 607 q -7 633 -4 625 q -10 651 -7 640 l -10 661 l -11 663 l -11 672 q -12 685 -11 679 q -12 694 -12 690 q -12 704 -12 700 q -11 711 -11 708 q -11 726 -11 718 q -10 742 -11 733 q -8 766 -8 754 q -4 793 -7 778 q 3 841 -1 817 q 14 890 7 865 q 71 1083 36 996 q 94 1135 82 1111 q 119 1183 106 1160 q 151 1233 132 1206 q 199 1288 169 1260 q 213 1301 206 1294 q 228 1314 221 1307 q 267 1340 244 1328 q 353 1375 304 1364 q 446 1382 401 1386 q 465 1379 460 1379 l 485 1376 q 507 1372 496 1374 q 529 1367 518 1369 q 613 1331 574 1354 q 682 1268 653 1304 q 742 1096 733 1200 l 743 1076 m 122 64 l 119 64 l 115 64 l 113 64 l 110 64 q 107 65 107 65 q 101 68 101 68 q 107 65 101 68 q 110 64 108 65 l 113 64 l 115 64 l 119 64 l 122 64 l 128 64 l 122 64 m 129 65 q 132 66 131 65 q 135 67 133 67 q 132 66 133 67 q 129 65 131 65 m 678 1060 l 678 1072 l 676 1092 q 629 1228 669 1174 q 578 1275 607 1256 q 547 1291 563 1285 q 511 1303 531 1297 q 494 1307 503 1306 q 474 1311 485 1308 l 457 1314 q 449 1315 454 1314 q 440 1315 444 1315 q 368 1311 403 1319 q 300 1283 336 1304 q 269 1263 285 1276 q 257 1252 263 1257 q 244 1240 251 1247 q 204 1193 221 1217 q 176 1150 188 1169 q 132 1058 153 1111 q 102 972 115 1017 q 78 876 89 928 q 68 831 72 853 q 61 785 64 808 q 58 759 60 771 q 56 736 57 747 q 55 723 56 729 q 54 710 54 717 l 54 694 l 54 676 q 56 669 56 674 l 56 667 q 57 660 56 663 q 58 651 57 656 q 58 644 58 647 q 62 630 61 638 q 65 614 63 622 q 73 587 68 600 q 83 560 78 574 q 107 512 94 536 q 136 464 119 488 q 296 304 193 383 q 312 294 301 301 q 335 276 322 288 l 339 274 q 342 271 342 272 q 344 268 343 269 q 378 233 363 253 q 401 190 394 213 q 397 185 400 188 q 392 179 394 182 q 386 174 390 176 q 360 165 375 168 q 330 165 344 163 q 304 176 315 167 q 292 204 293 185 l 292 218 q 253 227 275 224 q 209 231 231 231 q 170 232 188 232 q 146 231 153 232 q 113 224 118 228 q 107 218 108 221 q 101 169 97 190 q 113 146 103 157 q 123 135 117 140 q 136 125 129 129 l 139 122 q 147 117 142 121 q 161 110 151 114 q 190 96 172 103 q 231 83 207 89 q 338 75 279 71 q 353 76 344 76 q 368 78 361 76 l 392 82 q 397 83 394 83 q 401 85 399 83 q 423 92 413 88 q 443 103 433 96 q 482 133 464 115 q 511 179 500 154 q 526 229 522 199 q 518 331 535 281 q 508 355 514 343 q 496 378 503 367 l 479 399 q 475 403 476 401 q 471 408 474 406 q 468 411 468 411 l 460 419 q 458 421 458 419 l 419 458 q 384 496 400 478 q 353 531 368 514 q 331 560 342 546 q 310 589 321 574 q 292 616 300 603 q 279 643 285 629 q 271 668 274 654 q 268 681 268 676 l 268 682 q 267 688 267 683 l 267 689 l 267 693 l 267 694 l 267 700 l 267 717 q 269 734 268 725 q 271 753 269 743 q 277 791 274 772 q 285 829 281 810 q 303 906 293 869 q 328 975 314 943 q 342 1008 335 993 q 357 1038 350 1024 q 374 1065 365 1053 q 390 1085 383 1076 q 396 1089 393 1086 q 412 1122 407 1108 q 418 1147 417 1136 q 415 1168 419 1160 q 447 1147 436 1164 q 462 1108 457 1129 q 467 1065 467 1088 q 465 1028 467 1043 q 465 1019 465 1024 q 464 1008 465 1014 q 456 931 463 978 q 442 848 449 886 q 428 774 436 810 l 426 769 l 426 767 l 425 763 q 433 672 414 717 q 457 636 442 654 q 490 608 469 619 q 528 601 510 600 q 568 617 549 603 q 608 656 592 632 q 631 711 624 681 q 632 714 631 711 q 650 798 642 754 q 665 892 658 842 q 671 941 668 918 q 675 985 674 964 q 677 1010 676 999 q 678 1033 678 1022 l 678 1060 m 342 217 q 338 201 335 208 q 340 194 339 197 q 353 193 343 190 q 361 197 357 194 q 351 210 360 201 q 342 217 347 214 m 119 64 l 115 64 l 119 64 m 113 64 l 110 64 l 113 64 m 122 64 l 128 64 l 122 64 m 107 65 q 101 68 101 68 q 107 65 101 68 z "},"T":{"ha":538,"x_min":-11,"x_max":658,"o":"m 565 1293 q 594 1288 578 1293 q 625 1265 611 1282 q 649 1218 639 1249 q 658 1136 658 1188 q 632 994 658 1044 q 594 956 614 964 q 563 949 574 949 l 561 950 l 560 950 l 475 950 l 379 275 l 379 274 q 352 157 367 207 q 317 73 338 107 q 269 22 297 39 q 201 6 242 6 q 185 6 193 6 q 167 8 176 7 q 90 35 119 15 q 44 92 60 54 q 28 186 29 129 q 39 324 28 243 l 128 954 q 39 996 76 958 q 5 1044 21 1013 q -11 1126 -11 1075 q 33 1249 -10 1201 q 140 1297 75 1297 l 178 1297 q 165 1324 169 1308 q 167 1354 160 1339 q 225 1383 179 1383 q 269 1379 244 1383 q 317 1371 293 1375 q 340 1367 329 1368 q 361 1364 350 1365 q 436 1339 401 1357 q 490 1294 471 1321 l 565 1293 m 564 1015 q 580 1042 568 1017 q 592 1136 592 1067 q 584 1205 592 1183 q 565 1228 576 1226 l 564 1228 l 472 1228 l 408 1228 q 429 1236 422 1231 q 438 1247 436 1240 q 433 1260 440 1253 q 400 1283 421 1272 q 351 1299 379 1294 q 328 1301 340 1300 q 306 1306 317 1303 q 274 1311 290 1308 q 244 1315 258 1314 q 244 1300 247 1308 l 239 1258 q 227 1239 236 1247 q 206 1231 218 1231 l 142 1231 q 81 1201 104 1231 q 56 1126 57 1172 q 85 1043 56 1072 q 140 1019 108 1019 l 167 1019 q 190 1007 182 1019 q 199 981 201 996 l 104 314 q 94 183 92 229 q 108 113 97 136 q 138 83 119 89 q 176 74 157 76 q 189 72 183 72 q 201 72 194 72 q 231 78 217 72 q 259 105 246 83 q 286 169 272 126 q 314 285 300 211 l 408 949 q 403 985 408 972 q 393 1006 399 999 q 379 1015 388 1013 l 439 1015 q 446 1017 442 1017 l 447 1017 l 557 1015 l 564 1015 z "},"U":{"ha":846,"x_min":-42,"x_max":893,"o":"m 724 1339 q 876 1182 893 1306 l 876 1178 q 875 1175 876 1178 l 758 240 q 758 237 758 238 q 757 233 757 236 l 754 219 l 753 213 q 732 151 746 178 q 663 68 707 104 q 611 35 635 46 q 568 19 588 25 q 529 10 549 13 q 490 4 510 7 q 463 3 482 4 q 421 3 444 3 q 367 3 400 3 q 301 6 335 4 q 236 10 267 7 q 188 17 206 13 q 157 26 171 22 q 129 38 143 31 q 96 53 114 44 q 58 76 78 61 q 17 114 35 93 q -24 178 -8 143 q -39 268 -42 221 q -32 330 -39 271 q -15 481 -25 389 q 9 687 -4 574 q 35 912 22 800 q 59 1123 47 1024 q 78 1285 71 1222 q 63 1313 69 1296 q 67 1350 57 1331 q 83 1369 72 1363 q 106 1379 94 1376 q 126 1383 117 1382 q 142 1383 136 1383 q 192 1379 165 1383 q 246 1372 219 1375 q 256 1370 251 1371 q 265 1368 260 1369 q 418 1203 435 1343 l 418 1199 l 418 1194 l 321 325 q 340 319 326 322 q 385 317 354 317 q 400 315 396 317 q 410 316 407 315 q 417 317 414 317 l 471 750 q 488 911 479 829 q 506 1065 497 993 q 520 1192 514 1138 q 529 1272 526 1247 q 525 1325 514 1300 q 561 1351 538 1347 q 596 1356 585 1356 q 656 1351 624 1356 q 717 1340 688 1346 l 724 1339 m 810 1192 q 811 1211 811 1200 q 802 1233 811 1222 q 772 1255 793 1244 q 711 1272 750 1265 l 704 1274 q 649 1284 679 1279 q 596 1289 619 1289 q 597 1272 597 1283 q 590 1208 596 1264 q 574 1074 583 1153 q 556 906 565 996 q 538 742 546 817 l 483 315 q 513 310 500 311 q 533 311 525 310 q 549 317 543 313 q 536 285 550 297 q 502 266 522 274 q 460 255 482 258 q 425 250 439 251 q 411 249 418 249 q 400 249 404 249 l 399 249 l 394 249 q 383 250 393 250 q 359 250 372 250 q 331 253 346 250 q 301 258 325 254 q 252 272 278 263 q 206 296 226 281 q 185 333 185 311 q 201 326 192 329 q 222 324 210 324 q 253 326 235 324 q 254 333 253 331 l 351 1201 l 351 1204 l 351 1208 q 353 1211 351 1208 q 353 1237 354 1224 q 344 1263 353 1250 q 315 1285 336 1275 q 256 1303 294 1296 q 235 1306 249 1303 q 186 1313 211 1310 q 142 1317 161 1317 l 136 1317 l 139 1314 q 144 1288 147 1304 q 122 1094 135 1201 q 97 875 110 986 q 72 657 85 764 q 50 465 60 550 q 34 326 40 381 q 28 265 28 271 q 39 204 25 233 q 67 158 50 176 q 81 144 74 151 q 99 131 89 138 q 128 113 114 119 q 154 99 142 106 q 178 90 167 94 q 206 82 190 86 q 283 74 225 76 q 421 71 342 71 l 486 71 q 547 83 518 74 q 581 96 563 88 q 621 121 600 104 q 672 182 653 144 q 688 226 683 204 l 690 243 l 690 244 l 690 246 l 692 246 l 810 1185 l 810 1189 l 810 1192 z "},"V":{"ha":701,"x_min":17,"x_max":767,"o":"m 625 1306 q 688 1281 660 1297 q 734 1242 715 1264 q 760 1193 753 1219 q 761 1140 767 1167 q 760 1136 761 1138 l 760 1133 l 529 179 q 526 169 528 174 q 524 160 525 165 l 506 94 q 488 74 501 78 q 435 51 464 64 q 378 28 406 39 q 326 9 350 17 q 293 1 303 1 l 292 1 q 240 17 272 1 q 171 54 207 32 q 101 100 135 76 q 46 139 67 124 q 33 158 36 144 q 21 228 25 190 q 19 306 17 265 q 38 757 29 551 q 45 931 42 844 q 52 1092 49 1018 q 58 1219 56 1165 q 61 1294 60 1272 q 44 1319 51 1304 q 44 1353 38 1335 q 60 1372 50 1365 q 81 1382 69 1379 q 103 1385 92 1385 q 124 1386 115 1386 q 156 1385 139 1386 q 192 1382 174 1383 q 215 1380 204 1381 q 236 1379 226 1379 q 351 1342 303 1376 q 403 1246 406 1303 l 403 1243 l 403 1239 l 397 1097 l 435 1256 q 424 1283 428 1267 q 429 1314 421 1299 q 446 1331 435 1322 q 479 1339 457 1339 q 527 1332 500 1339 q 582 1318 554 1325 q 603 1312 593 1315 q 625 1306 614 1308 m 697 1157 q 678 1204 701 1178 q 608 1242 654 1231 q 586 1248 597 1244 q 564 1254 575 1251 q 533 1263 549 1258 q 503 1269 517 1267 q 503 1251 506 1260 l 382 754 q 379 746 382 751 q 372 712 376 733 q 367 665 368 690 q 343 674 354 664 q 326 701 333 682 q 317 757 318 719 l 317 764 l 336 1242 l 336 1243 l 336 1247 q 338 1250 336 1247 q 328 1272 338 1263 q 313 1288 319 1282 q 277 1305 297 1299 q 233 1313 257 1311 q 210 1315 222 1314 q 186 1317 199 1315 q 155 1319 171 1318 q 125 1319 139 1319 q 126 1303 128 1310 q 126 1288 126 1300 q 124 1239 125 1275 q 119 1137 122 1203 q 113 960 117 1071 q 101 689 108 850 q 86 303 94 528 q 86 242 83 271 q 94 185 89 213 q 155 144 124 164 q 213 107 186 124 q 261 80 240 90 q 292 68 282 69 q 313 75 297 69 q 351 89 329 81 q 397 107 372 97 q 446 128 422 117 l 460 176 q 463 186 461 182 q 465 194 464 190 l 696 1149 l 696 1150 l 696 1154 q 697 1157 697 1154 z "},"W":{"ha":944,"x_min":1,"x_max":1071,"o":"m 1065 1182 q 1065 1180 1065 1181 q 1064 1178 1064 1179 l 836 89 q 815 64 833 71 q 751 44 783 54 q 691 24 718 33 q 645 9 664 15 q 624 3 626 3 q 607 1 619 1 q 565 8 589 1 q 516 24 540 15 q 469 44 492 33 q 433 61 447 54 q 365 31 392 42 q 320 13 338 19 q 292 3 303 6 q 276 1 282 1 q 264 4 272 1 q 231 19 256 7 q 159 60 206 32 q 32 138 113 88 q 18 158 21 144 q 6 228 10 190 q 4 306 1 265 l 44 1294 q 29 1319 36 1304 q 29 1353 22 1335 q 44 1372 35 1365 q 65 1382 54 1379 q 88 1385 76 1385 q 107 1386 99 1386 q 141 1385 124 1386 q 176 1382 158 1383 q 199 1380 189 1381 q 221 1379 210 1379 q 336 1342 288 1376 q 388 1246 390 1303 l 388 1243 l 388 1239 l 379 1082 q 433 1128 396 1111 q 519 1146 471 1146 q 537 1146 528 1146 q 556 1143 546 1146 q 665 1097 621 1135 q 690 1071 681 1083 l 738 1294 q 726 1323 731 1306 q 731 1356 722 1340 q 748 1374 736 1365 q 785 1382 760 1382 q 830 1376 804 1382 q 882 1364 856 1371 q 904 1359 893 1361 q 925 1354 915 1357 q 988 1330 960 1347 q 1035 1290 1017 1313 q 1063 1240 1054 1267 q 1065 1185 1071 1213 l 1065 1182 m 1001 1199 q 981 1253 1007 1226 q 911 1289 954 1281 q 889 1294 900 1292 q 867 1300 878 1297 q 833 1308 850 1304 q 803 1315 817 1313 q 804 1292 807 1306 l 631 463 q 629 458 631 460 q 633 433 629 442 q 643 418 638 424 q 658 411 649 413 q 606 415 626 400 q 578 444 586 429 q 565 475 563 456 l 643 1006 l 643 1010 l 643 1011 q 624 1047 646 1028 q 546 1078 593 1071 q 533 1080 539 1079 q 519 1081 526 1081 q 459 1069 482 1081 q 433 1042 436 1057 l 433 1039 l 369 603 l 369 601 l 346 471 q 344 465 346 467 l 346 465 q 325 429 338 444 q 297 410 314 417 q 256 411 281 403 q 271 419 265 414 q 281 435 276 425 q 283 464 285 444 q 281 478 281 472 l 321 1242 l 321 1243 l 321 1247 q 322 1250 321 1247 q 313 1272 322 1263 q 297 1288 304 1282 q 218 1313 267 1310 q 195 1315 207 1314 q 171 1317 183 1315 q 140 1319 156 1318 q 108 1319 124 1319 q 111 1303 114 1313 l 71 303 q 79 186 67 240 q 142 147 110 167 q 201 112 174 128 q 249 85 228 96 q 279 69 269 74 q 315 83 288 72 q 407 122 342 93 q 417 126 414 125 q 422 129 419 128 q 435 132 428 132 q 450 128 443 132 q 479 113 458 124 q 524 92 500 103 q 572 74 549 82 q 607 67 594 67 l 608 67 q 631 74 613 68 q 672 88 649 79 q 724 104 696 96 q 776 121 751 113 l 1000 1193 l 1000 1196 q 1001 1199 1000 1197 z "},"X":{"ha":579,"x_min":-14,"x_max":701,"o":"m 692 1197 l 554 300 q 543 281 551 288 l 490 238 q 494 44 558 115 q 399 6 458 6 q 326 18 365 6 q 246 57 288 31 q 182 31 217 42 q 111 19 147 19 q 14 61 47 19 q -12 142 -14 94 q 21 244 -11 190 l 4 260 q -7 288 -10 271 l 90 1232 q 76 1258 82 1243 q 78 1290 71 1274 q 110 1316 89 1313 q 142 1319 132 1319 q 181 1317 160 1319 q 224 1311 201 1314 q 246 1308 235 1310 q 267 1306 257 1307 q 363 1271 321 1301 l 367 1293 q 354 1320 360 1304 q 357 1353 349 1336 q 415 1381 371 1381 q 458 1377 435 1381 q 504 1368 481 1374 q 526 1364 515 1365 q 547 1361 536 1363 q 656 1307 613 1350 q 693 1204 701 1261 q 692 1202 693 1203 q 692 1200 692 1201 l 692 1197 m 629 1214 q 624 1243 632 1231 q 610 1263 617 1256 q 536 1297 582 1289 q 492 1306 514 1300 q 460 1311 476 1308 q 429 1315 443 1314 q 432 1294 433 1304 l 421 1219 l 322 447 q 293 418 318 422 q 272 422 282 417 q 260 439 263 428 q 258 444 258 442 q 258 454 257 447 l 257 454 l 258 461 q 261 493 258 472 q 268 551 264 514 q 278 644 272 589 q 294 782 285 700 q 310 912 301 844 q 325 1038 318 979 q 337 1142 332 1097 q 343 1204 342 1186 q 260 1242 314 1235 q 237 1244 249 1243 q 214 1247 225 1246 q 183 1252 199 1250 q 153 1256 167 1254 q 156 1245 156 1250 q 156 1236 156 1240 l 60 297 l 78 281 q 106 293 103 281 q 104 307 107 299 q 113 289 113 300 q 108 267 113 278 q 99 248 104 257 q 90 235 93 239 q 89 232 90 235 q 54 156 61 190 q 63 103 47 122 q 111 83 79 83 q 232 122 161 83 q 247 126 238 126 q 264 121 256 126 q 399 69 343 69 q 446 88 432 69 q 459 121 458 101 q 453 160 460 140 q 438 197 447 179 q 422 226 429 215 q 414 238 419 229 q 403 258 408 247 q 398 281 399 269 q 406 300 397 292 q 406 286 403 292 q 413 277 408 281 q 433 274 418 274 l 492 322 l 628 1206 l 628 1208 l 628 1211 q 629 1214 628 1213 z "},"Y":{"ha":617,"x_min":-28,"x_max":754,"o":"m 746 1208 q 744 1204 744 1207 l 592 235 q 565 115 582 174 q 511 25 547 57 q 442 4 486 4 q 423 5 432 4 q 406 7 414 6 l 397 7 q 365 11 382 8 q 331 22 347 14 q 299 43 314 29 q 276 82 285 57 l 264 82 q 231 82 247 81 q 200 86 215 83 q 124 108 157 93 q 102 118 113 114 q 82 129 92 122 q 36 165 57 144 q -11 233 6 196 q -21 258 -18 246 q -26 285 -24 271 q -28 300 -28 292 q -28 315 -28 308 q -28 324 -28 319 q -26 333 -28 329 l -26 339 l 60 1181 q 47 1206 53 1192 q 49 1236 42 1221 q 79 1262 58 1258 q 110 1265 100 1265 q 147 1263 126 1265 q 189 1257 168 1260 q 210 1253 200 1254 q 229 1251 219 1253 q 291 1235 263 1247 q 340 1205 319 1224 q 370 1163 360 1186 q 378 1115 381 1140 l 378 1113 l 378 1108 l 336 683 l 432 1299 q 421 1325 425 1310 q 424 1356 417 1340 q 479 1382 438 1382 q 519 1378 497 1382 q 565 1369 542 1375 q 587 1365 576 1367 q 606 1363 597 1364 q 710 1311 669 1351 q 746 1211 754 1267 l 746 1208 m 685 1222 q 680 1249 688 1238 q 665 1268 672 1261 q 596 1301 640 1294 q 553 1310 575 1304 q 522 1315 538 1313 q 493 1319 506 1318 q 496 1299 499 1310 l 351 385 q 346 361 349 369 l 347 361 q 346 358 347 360 q 342 351 344 357 q 326 328 336 338 q 289 294 311 310 q 235 285 267 279 q 240 296 238 288 q 246 351 244 308 q 244 386 242 369 q 246 397 246 392 q 247 408 246 401 l 247 410 l 315 1114 l 315 1117 q 317 1119 315 1119 l 317 1122 q 292 1164 318 1143 q 224 1190 267 1185 q 202 1192 213 1192 q 179 1196 192 1193 q 149 1200 164 1199 q 121 1203 133 1201 q 124 1186 124 1197 l 36 332 l 36 331 q 35 326 35 329 l 35 322 q 34 318 35 319 q 33 314 33 317 q 34 303 33 308 q 35 293 35 299 q 39 275 36 283 q 44 258 42 267 q 79 210 57 232 q 115 182 94 194 q 130 174 122 178 q 147 165 138 169 q 210 147 174 154 q 263 143 236 143 q 279 144 271 144 q 296 146 288 144 q 300 147 297 147 q 320 140 311 147 q 332 121 329 132 q 353 79 338 86 q 403 69 368 72 l 413 68 q 427 67 419 67 q 442 67 435 67 q 463 68 457 67 q 469 72 468 69 q 494 108 483 85 q 513 157 506 131 q 524 208 519 183 q 531 244 528 232 l 683 1214 l 683 1215 q 685 1219 683 1218 l 685 1222 z "},"Z":{"ha":678,"x_min":-39,"x_max":874,"o":"m 864 1232 q 865 1150 874 1193 q 851 1103 861 1126 q 831 1058 842 1081 q 807 1012 819 1035 q 785 971 794 989 l 749 906 l 724 861 l 674 774 q 574 606 624 689 q 474 444 524 524 q 490 453 481 450 q 513 458 499 457 l 547 458 q 585 457 565 458 q 622 451 604 456 q 652 435 639 446 q 671 408 665 425 q 673 399 672 404 q 672 380 674 393 q 663 341 669 367 q 642 271 656 315 q 628 231 635 250 q 617 194 622 211 q 609 167 613 178 q 604 153 606 156 q 585 112 594 131 q 563 78 575 93 q 529 44 547 58 q 519 36 524 40 q 508 29 514 32 q 501 26 507 29 l 485 22 l 479 21 q 433 13 456 15 q 386 7 410 10 q 374 7 379 7 q 361 6 368 7 l 346 6 l 318 4 q 290 3 304 4 q 263 3 276 3 l 224 3 q 185 3 204 3 q 146 4 165 3 l 129 4 l 125 4 l 118 6 q 104 8 111 7 q 90 11 97 8 q 74 17 82 14 q 57 25 65 21 q 26 46 42 32 q 1 72 11 60 q -17 99 -11 86 q -22 110 -19 104 q -26 122 -24 115 q -30 131 -29 126 q -33 142 -31 136 q -35 149 -35 146 q -36 157 -35 153 q -38 181 -39 171 q -37 199 -37 192 q -36 213 -36 207 q -35 224 -36 218 q -26 254 -31 240 q -19 275 -25 261 q -6 309 -12 294 q 7 338 0 324 q 35 389 18 360 l 47 413 l 63 438 q 64 439 63 438 l 119 525 l 171 607 q 222 688 197 647 q 272 771 247 729 q 251 767 263 768 q 228 765 240 765 q 169 773 200 765 q 108 793 138 781 q 53 822 78 806 q 13 858 28 839 q -10 897 -7 879 q -11 926 -14 915 l 32 1140 q 43 1190 36 1164 q 60 1240 50 1215 q 117 1329 79 1294 q 126 1339 121 1335 q 138 1347 132 1343 q 160 1361 147 1354 q 171 1366 165 1364 q 183 1371 176 1368 l 204 1379 q 210 1380 207 1379 q 215 1381 213 1381 q 263 1383 239 1382 q 314 1385 288 1383 l 375 1385 q 428 1386 403 1386 q 481 1386 454 1386 l 524 1385 q 549 1385 538 1385 q 574 1383 561 1385 q 629 1380 606 1382 q 672 1375 653 1378 q 764 1349 728 1367 q 826 1301 803 1329 q 839 1285 835 1293 q 851 1265 844 1279 q 864 1232 860 1249 m 801 1163 q 800 1215 806 1190 q 796 1226 797 1221 q 792 1236 794 1231 q 785 1247 790 1239 q 776 1257 779 1254 q 735 1289 761 1275 q 703 1301 721 1296 q 663 1310 686 1306 q 622 1314 643 1313 q 571 1317 600 1315 q 547 1318 560 1318 q 522 1319 535 1318 l 479 1319 l 376 1319 l 315 1318 q 269 1317 292 1317 q 222 1315 246 1317 q 214 1312 218 1313 q 206 1308 210 1311 q 190 1301 197 1307 q 183 1298 186 1300 q 176 1293 181 1296 q 163 1282 171 1290 q 121 1217 138 1260 q 107 1170 113 1193 q 96 1126 101 1147 l 90 1099 l 54 915 q 56 909 54 914 q 65 897 58 904 q 97 873 78 885 q 139 852 117 861 q 185 838 161 843 q 228 832 208 832 q 251 834 238 832 q 272 846 265 836 q 297 880 275 850 q 345 948 318 910 q 400 1026 372 986 q 444 1090 428 1065 l 444 1092 l 447 1094 q 450 1099 447 1096 q 453 1103 451 1101 q 458 1107 456 1104 q 479 1126 467 1115 q 506 1143 492 1136 q 538 1152 521 1150 q 574 1147 556 1154 q 560 1128 568 1140 q 542 1100 553 1117 q 518 1060 532 1083 l 517 1058 l 481 994 l 432 908 q 228 571 329 735 l 175 489 l 119 403 l 104 379 l 92 356 q 78 331 85 343 q 67 308 72 319 q 54 283 60 296 q 42 253 49 269 q 39 243 40 247 q 36 235 38 239 q 33 225 35 231 q 31 213 32 219 q 30 204 31 208 q 29 194 29 200 q 29 167 28 185 q 31 162 31 164 q 32 157 31 160 q 35 144 32 153 q 38 137 38 140 q 42 129 39 133 q 53 113 44 124 q 68 97 60 104 q 78 90 74 93 q 89 83 83 86 q 99 78 93 81 q 108 75 104 76 q 118 73 114 74 q 128 71 122 72 l 133 69 l 147 69 q 261 69 207 67 q 288 69 275 69 q 315 71 301 69 l 350 72 l 351 72 l 360 72 q 371 72 365 72 q 382 74 376 72 q 465 86 424 76 l 469 86 q 474 88 472 88 q 478 89 475 88 q 488 96 482 90 q 510 118 500 106 q 542 176 529 144 q 553 210 544 182 q 573 271 563 238 q 592 337 583 304 q 606 386 601 369 q 585 391 599 389 q 547 393 571 393 q 528 392 536 393 q 517 392 519 392 l 514 392 q 511 388 513 390 q 507 383 510 386 q 490 361 503 375 q 474 342 482 353 q 454 315 465 331 l 426 275 q 400 236 411 254 q 379 204 389 218 q 360 175 368 189 q 313 227 322 199 q 306 279 303 256 q 325 335 310 307 l 326 335 l 326 336 l 354 379 l 408 464 q 513 633 461 547 q 615 807 564 719 l 667 894 l 690 938 l 726 1003 q 748 1042 736 1021 q 771 1088 760 1064 q 789 1126 781 1107 q 801 1163 797 1146 z "},"s":{"ha":646,"x_min":-12,"x_max":769,"o":"m 585 1490 q 549 1505 564 1490 q 535 1540 535 1519 q 549 1574 535 1560 q 585 1589 564 1589 q 620 1574 606 1589 q 635 1540 635 1560 q 620 1505 635 1519 q 585 1490 606 1490 m 585 1567 q 565 1559 574 1567 q 557 1540 557 1551 q 565 1519 557 1528 q 585 1511 574 1511 q 604 1519 596 1511 q 613 1540 613 1528 q 604 1559 613 1551 q 585 1567 596 1567 m 349 1494 q 328 1503 336 1494 q 319 1522 319 1511 q 328 1542 319 1533 q 349 1550 336 1550 q 368 1542 360 1550 q 376 1522 376 1533 q 368 1503 376 1511 q 349 1494 360 1494 m 349 1536 q 333 1522 333 1536 q 349 1508 333 1508 q 363 1522 363 1508 q 349 1536 363 1536 m 769 1060 q 768 1034 768 1047 q 767 1006 768 1021 q 761 958 764 982 q 756 906 758 935 q 738 806 747 853 q 718 715 729 760 l 718 714 q 683 633 708 669 q 625 574 658 597 q 589 556 608 563 q 551 546 569 549 q 476 561 515 544 q 447 580 461 569 q 419 606 433 590 q 385 661 400 629 q 374 797 356 725 l 374 803 q 375 807 375 804 q 390 881 383 843 q 404 964 397 919 q 405 976 404 971 q 407 986 406 981 q 405 981 406 983 q 403 975 404 978 q 361 836 378 914 q 349 763 353 794 q 346 744 347 753 q 344 729 344 736 q 343 715 343 725 l 343 713 l 343 710 l 343 708 q 344 700 344 706 q 348 694 347 697 q 351 685 349 690 q 361 663 354 674 q 375 640 368 651 q 397 613 386 626 q 418 586 407 600 q 448 552 432 569 q 482 517 464 535 l 521 476 l 524 476 l 524 475 l 531 468 q 536 464 532 464 q 542 457 539 461 q 547 450 544 453 q 559 435 554 443 q 569 421 564 428 q 600 357 588 392 q 614 290 611 324 q 613 221 617 256 q 592 149 606 181 q 573 116 583 132 q 549 86 563 100 q 522 61 536 72 q 492 39 507 50 q 463 26 478 32 q 432 15 449 21 q 419 13 426 13 l 414 11 q 411 10 413 11 q 408 10 410 10 l 390 6 q 371 4 379 4 q 354 3 363 4 q 336 2 344 3 q 318 1 328 1 q 222 13 271 1 q 171 29 193 19 q 133 46 149 39 q 115 58 122 53 q 106 65 108 63 q 101 67 104 65 q 61 103 78 82 q 47 128 53 115 q 39 156 42 140 q 37 205 32 183 q 46 242 42 226 q 63 270 53 260 q 86 288 72 281 q 112 308 97 299 q 143 317 126 317 q 166 313 156 317 q 185 301 176 308 l 207 301 q 138 367 168 333 q 85 435 108 400 q 51 490 65 463 q 24 544 36 517 q 11 578 17 561 q 1 611 6 594 q -3 631 -1 622 q -6 649 -4 639 q -10 667 -10 657 q -10 672 -10 669 q -11 676 -11 674 l -11 678 l -11 689 q -12 701 -12 694 q -12 713 -12 707 l -12 729 q -11 744 -11 736 q -11 760 -11 751 q -8 785 -10 772 q -4 814 -6 799 q 3 864 -1 839 q 13 914 8 889 q 41 1019 26 971 q 74 1113 56 1067 q 97 1167 85 1140 q 122 1215 110 1193 q 156 1267 136 1239 q 206 1324 175 1296 q 221 1339 213 1332 q 236 1353 229 1346 q 243 1357 242 1356 q 265 1403 246 1385 q 310 1421 283 1421 q 347 1410 335 1421 q 356 1413 351 1411 q 364 1414 361 1414 q 365 1415 365 1414 q 399 1476 372 1451 q 464 1500 426 1500 q 533 1473 504 1500 q 564 1407 561 1446 q 601 1414 582 1414 q 672 1385 643 1414 q 701 1314 701 1356 l 701 1308 q 704 1304 701 1307 q 767 1126 758 1233 l 768 1106 q 769 1097 768 1101 q 769 1090 769 1093 l 769 1060 m 701 1089 q 701 1096 701 1092 q 700 1103 700 1100 l 700 1122 q 650 1264 692 1208 q 641 1274 646 1268 q 631 1283 636 1279 q 650 1322 650 1297 q 635 1356 650 1342 q 601 1371 621 1371 q 570 1360 583 1371 q 553 1333 557 1350 q 528 1342 542 1335 q 523 1342 525 1342 q 518 1343 521 1343 q 535 1389 535 1364 q 534 1399 535 1394 q 531 1410 533 1404 q 506 1443 524 1429 q 465 1457 489 1457 q 407 1422 425 1457 q 401 1406 404 1414 q 399 1389 399 1397 q 404 1364 399 1378 q 399 1365 401 1364 q 394 1365 397 1365 q 379 1360 386 1365 q 369 1346 372 1354 q 363 1343 363 1343 q 319 1371 349 1371 q 288 1358 301 1371 q 275 1326 275 1346 q 283 1301 275 1314 q 278 1299 283 1301 q 265 1287 271 1292 q 253 1276 260 1282 q 210 1226 228 1251 q 182 1182 193 1201 q 159 1138 169 1161 q 138 1089 149 1115 q 105 999 118 1044 q 79 900 92 953 q 71 852 75 876 q 64 804 67 828 q 60 778 61 790 q 57 753 58 767 q 56 740 57 746 q 56 726 56 733 l 56 713 l 56 693 q 57 685 57 689 l 57 683 q 58 675 57 678 q 60 667 58 671 q 61 660 61 663 q 64 644 63 653 q 67 629 65 636 q 75 601 71 614 q 86 572 79 588 q 142 474 107 524 q 212 390 169 432 q 307 308 254 349 q 323 297 313 304 q 347 278 333 290 l 350 276 q 356 269 353 275 q 392 234 375 254 q 415 190 408 214 q 411 183 414 186 q 399 174 407 178 q 372 165 388 168 q 340 163 356 161 q 313 175 325 165 q 300 204 301 185 l 300 219 q 242 231 275 228 q 243 236 243 232 q 225 256 243 256 q 206 236 206 256 l 206 233 l 174 233 q 178 251 178 242 q 168 276 178 265 q 143 286 158 286 q 118 276 128 286 q 108 251 108 265 q 118 225 108 238 q 113 222 114 224 q 110 219 111 221 q 104 192 106 204 q 106 168 103 181 q 117 144 108 156 q 126 133 119 138 q 140 124 133 128 l 143 121 q 151 115 146 119 q 167 107 157 111 q 197 93 178 100 q 239 79 215 86 q 350 71 289 67 q 381 75 365 71 l 404 79 q 409 80 407 79 q 415 81 411 81 q 437 89 426 85 q 458 100 447 93 q 497 132 481 114 q 529 178 515 151 q 546 231 540 207 q 535 335 553 286 q 525 360 531 349 q 513 383 519 372 q 504 394 508 389 q 496 406 500 400 q 486 417 493 410 q 485 417 485 417 q 483 418 485 418 l 475 428 q 474 429 474 428 l 432 467 q 365 542 394 508 q 342 572 353 557 q 319 603 331 588 q 288 658 300 631 q 281 685 282 674 q 276 697 276 689 l 276 699 q 276 701 276 700 q 275 704 275 703 l 275 706 l 275 710 l 275 713 l 275 717 q 276 735 275 728 q 281 772 276 751 q 286 811 283 792 q 294 850 289 831 q 339 1001 311 933 q 353 1035 346 1019 q 369 1067 361 1051 q 387 1093 378 1081 q 404 1114 396 1106 q 406 1117 406 1115 q 410 1121 407 1118 q 426 1154 421 1140 q 432 1179 431 1168 q 429 1200 433 1192 q 461 1178 450 1196 q 477 1140 472 1161 q 483 1095 482 1118 q 482 1056 483 1072 q 481 1036 481 1049 q 476 999 479 1018 q 471 956 474 979 q 442 793 458 864 l 442 788 q 440 786 440 788 l 439 782 q 447 689 428 733 q 472 650 456 669 q 489 635 481 642 q 507 622 497 628 q 546 615 522 615 q 586 631 569 618 q 627 672 610 646 q 651 728 644 697 q 653 731 651 729 q 672 819 664 774 q 686 915 679 864 q 693 966 690 943 q 699 1011 696 989 q 700 1038 700 1025 q 701 1061 700 1050 l 701 1089 m 263 267 q 272 257 263 257 q 281 267 281 257 q 272 275 281 275 q 263 267 263 275 m 353 218 q 349 201 346 210 q 351 196 350 197 q 364 194 353 192 q 374 197 369 196 q 363 210 371 204 q 353 218 357 214 m 144 340 q 140 328 144 333 q 129 324 136 324 q 117 328 122 324 q 113 340 113 333 q 117 351 113 347 q 129 356 122 356 q 144 340 144 356 m 121 340 q 129 332 121 332 q 138 340 138 332 q 129 350 138 350 q 121 340 121 350 z "},"t":{"ha":576,"x_min":-40,"x_max":596,"o":"m 521 478 q 563 455 547 478 q 585 401 578 432 q 594 342 593 371 q 596 303 596 314 q 594 263 596 292 q 584 204 592 235 q 560 151 576 174 q 518 128 544 128 l 517 128 l 515 128 l 403 129 q 249 1 343 1 q 229 3 236 1 q 154 42 186 10 q 107 132 122 75 l 88 132 q -7 179 29 132 q -40 308 -40 225 q -26 399 -40 365 q 7 452 -12 433 q 49 476 26 471 q 89 482 71 482 l 122 482 l 240 1301 q 227 1328 232 1313 q 229 1360 222 1343 q 289 1389 242 1389 q 333 1385 308 1389 q 382 1376 357 1381 q 426 1368 410 1372 q 493 1349 463 1363 q 544 1315 524 1335 q 576 1269 565 1294 q 582 1218 586 1244 l 582 1215 q 581 1211 582 1213 l 475 479 l 521 478 m 510 196 q 522 233 515 206 q 528 303 528 261 q 522 373 528 346 q 511 411 517 400 l 447 411 l 378 411 q 388 418 382 413 q 396 430 392 422 q 403 450 400 438 l 514 1221 l 514 1222 q 515 1224 514 1224 q 515 1226 515 1225 l 515 1229 q 491 1272 518 1250 q 417 1301 464 1294 q 394 1306 406 1304 q 369 1310 382 1307 q 338 1315 354 1313 q 308 1319 322 1318 q 308 1304 311 1313 l 185 443 q 173 422 182 431 q 151 414 164 414 l 150 414 l 89 415 q 72 413 82 415 q 52 401 63 411 q 35 369 42 390 q 28 307 28 347 q 47 219 25 247 q 88 199 64 199 l 133 199 q 155 191 146 199 q 167 171 164 183 q 173 144 168 160 q 186 113 178 128 q 208 85 194 97 q 239 69 221 72 q 244 69 242 69 q 249 68 246 68 q 299 93 276 68 q 335 143 321 118 q 334 168 339 158 q 322 185 329 178 q 300 194 314 190 l 372 194 q 382 196 375 196 l 510 196 z "},"e":{"ha":607,"x_min":-36,"x_max":744,"o":"m 743 1125 q 744 1110 743 1117 q 743 1096 744 1103 q 736 1051 743 1075 q 694 985 722 1011 q 599 947 654 947 q 582 947 590 947 q 565 950 574 947 q 461 1007 513 963 q 450 1019 456 1014 q 439 1031 444 1024 q 421 994 429 1015 q 407 953 413 974 q 404 939 404 942 l 401 924 l 394 883 l 381 803 q 369 727 375 765 q 358 650 364 689 q 353 617 356 635 q 349 583 351 600 l 411 585 q 440 574 425 585 q 464 538 456 564 q 467 510 467 526 q 467 485 467 493 l 467 483 q 453 453 465 472 q 410 431 442 435 q 374 427 401 429 q 322 422 346 425 q 320 404 321 413 q 317 388 319 396 l 306 326 l 308 326 q 319 325 313 325 q 335 328 324 325 q 360 334 347 331 q 385 341 374 338 q 400 346 396 344 l 404 349 q 438 363 419 356 q 481 368 457 369 q 528 350 504 367 q 558 304 547 332 q 567 238 568 275 q 560 202 565 225 q 536 151 554 179 l 532 144 q 530 141 531 142 q 528 138 529 140 l 526 136 q 520 126 524 131 q 514 117 517 122 q 481 82 501 100 q 382 22 438 42 q 332 8 358 13 q 278 4 306 4 q 263 4 271 4 q 247 6 254 4 q 240 6 243 6 q 232 7 236 7 l 231 8 q 214 11 222 8 q 200 14 207 13 q 182 18 193 15 q 106 51 138 32 q 34 110 65 75 q -14 186 3 144 q -33 275 -32 229 q -33 321 -36 297 q -32 333 -32 328 q -31 343 -32 338 l -29 354 l -29 356 l -12 446 q -6 485 -10 465 q 1 526 -1 504 q 14 613 8 569 q 26 697 19 656 q 39 778 33 738 q 51 858 44 818 l 65 943 l 75 999 l 78 1014 q 81 1028 79 1021 q 85 1042 82 1035 q 124 1149 100 1099 q 155 1205 139 1179 q 190 1254 171 1231 q 240 1306 211 1282 q 256 1318 244 1310 q 259 1321 257 1319 q 264 1325 261 1322 q 269 1328 267 1326 q 274 1331 271 1329 q 292 1343 283 1338 q 313 1354 301 1349 q 489 1386 396 1394 q 576 1363 533 1382 q 650 1313 618 1344 q 704 1244 682 1283 q 738 1157 726 1204 l 738 1156 q 741 1140 740 1147 q 743 1125 742 1132 m 679 1118 q 677 1130 678 1125 q 675 1140 676 1135 l 675 1142 l 675 1143 q 606 1267 656 1221 q 550 1305 582 1290 q 482 1322 518 1319 q 409 1318 446 1325 q 340 1296 372 1311 q 325 1288 333 1292 q 308 1278 317 1283 q 305 1275 306 1276 q 301 1272 304 1274 q 294 1267 299 1271 q 288 1262 290 1264 q 282 1257 285 1260 q 239 1214 260 1239 q 208 1172 222 1194 q 182 1121 194 1149 q 162 1074 171 1097 q 146 1025 153 1050 q 143 1013 144 1018 q 140 1000 142 1007 l 136 975 l 128 933 l 115 849 q 103 768 108 808 q 90 689 97 728 q 77 603 83 646 q 64 517 71 560 q 58 474 61 494 q 51 435 54 454 l 35 344 l 33 335 q 32 326 32 331 q 31 317 32 321 l 31 279 q 46 211 32 244 q 138 107 72 144 q 167 92 151 99 q 200 81 182 85 q 214 76 208 78 q 226 74 219 75 q 233 72 229 72 q 240 71 236 72 q 247 70 243 71 q 253 69 250 69 q 265 68 260 68 q 278 68 271 68 q 319 72 299 68 q 360 82 340 75 q 438 129 406 100 q 463 157 451 140 q 472 171 468 163 l 474 172 q 476 176 476 175 l 482 186 q 498 221 494 206 q 503 243 501 236 q 499 282 503 265 q 488 300 493 294 q 476 303 479 303 l 474 303 q 453 299 464 303 q 431 290 442 296 l 426 288 q 407 281 422 285 q 375 272 392 276 q 344 265 358 268 q 324 261 329 261 l 321 261 q 284 247 297 256 q 264 229 271 239 q 254 206 257 218 q 242 239 244 221 q 238 272 239 257 q 238 307 236 289 l 238 310 l 238 311 q 238 313 238 313 q 239 315 239 314 l 239 317 l 254 399 q 259 427 257 413 q 264 457 261 442 q 291 458 274 457 q 326 460 308 460 q 359 462 344 461 q 379 463 374 463 q 399 466 392 463 q 408 474 406 469 q 413 486 413 479 q 414 503 414 494 q 414 517 414 510 q 413 528 414 524 q 399 549 407 543 q 390 551 394 551 l 276 540 q 286 601 282 571 q 294 660 290 631 q 306 736 300 697 q 318 813 311 775 l 331 894 l 340 951 l 344 968 q 367 1031 353 1000 q 396 1081 381 1061 q 404 1090 400 1086 q 413 1099 408 1094 l 415 1101 l 417 1101 l 418 1103 q 449 1128 429 1114 q 496 1150 469 1143 q 483 1125 486 1140 q 485 1095 481 1113 q 506 1054 489 1078 q 579 1013 540 1021 q 651 1032 621 1004 q 675 1071 667 1047 q 679 1099 679 1083 l 679 1118 z "},"v":{"ha":586,"x_min":-12,"x_max":739,"o":"m 596 1306 q 659 1280 631 1297 q 706 1240 688 1263 q 732 1192 725 1218 q 733 1139 739 1165 q 732 1136 732 1139 l 732 1133 l 500 179 l 496 158 l 478 94 q 458 72 474 79 q 407 50 436 63 q 350 27 378 38 q 299 9 322 17 q 265 1 275 1 l 263 1 q 210 17 243 1 q 142 54 178 32 q 72 100 106 76 q 17 139 38 124 q 4 157 10 144 q -8 306 -12 224 q 10 757 1 551 q 17 931 14 844 q 24 1090 21 1017 q 28 1218 26 1164 q 32 1293 31 1272 q 17 1319 24 1304 q 17 1353 10 1335 q 32 1372 22 1365 q 53 1382 42 1379 q 75 1385 64 1385 q 94 1386 86 1386 q 128 1385 110 1386 q 164 1382 146 1383 q 186 1380 175 1381 q 208 1379 197 1379 q 270 1367 240 1376 q 324 1342 300 1358 q 363 1297 349 1322 q 375 1246 376 1272 l 375 1242 l 375 1239 l 368 1097 l 407 1256 q 397 1283 400 1267 q 401 1314 393 1299 q 417 1331 406 1322 q 451 1339 428 1339 q 498 1332 471 1339 q 553 1318 525 1325 q 596 1306 574 1311 m 669 1156 q 649 1204 674 1178 q 581 1242 625 1231 q 535 1254 560 1246 q 503 1263 519 1258 q 474 1269 488 1267 q 474 1251 476 1260 l 360 781 l 379 775 q 347 728 363 756 q 317 667 333 704 q 288 582 301 631 q 289 663 290 622 q 284 735 288 697 q 269 804 281 772 l 290 799 l 308 1240 l 308 1243 l 308 1247 l 308 1249 q 300 1272 308 1263 q 285 1288 292 1282 q 249 1305 269 1299 q 206 1313 228 1311 q 183 1313 194 1313 q 158 1315 171 1314 q 96 1319 125 1319 q 99 1300 100 1310 l 99 1292 l 57 303 q 58 242 56 271 q 67 185 60 213 q 127 144 96 164 q 185 107 158 124 q 233 80 213 90 q 263 68 254 69 q 285 75 269 69 q 323 89 301 81 q 369 107 344 97 q 418 126 393 117 l 432 176 q 436 194 433 183 l 667 1147 l 667 1150 q 668 1153 667 1151 q 669 1156 668 1156 z "},"l":{"ha":440,"x_min":-47,"x_max":444,"o":"m 424 236 q 431 150 444 196 q 428 138 429 143 q 424 128 426 133 q 422 126 422 128 l 422 125 q 415 114 421 122 q 410 108 413 111 q 406 101 408 106 q 383 79 396 90 q 356 57 371 68 q 291 22 333 42 q 192 1 249 3 l 190 1 q 92 25 139 1 q 8 99 43 50 q -37 217 -25 149 q -47 344 -47 265 l -44 406 q -44 420 -44 414 q -43 432 -43 426 q -38 471 -40 453 q -33 506 -36 489 l -33 508 q -16 621 -25 565 q 1 731 -7 676 l 11 786 q 34 927 24 861 q 56 1060 44 993 q 66 1133 61 1100 q 75 1196 71 1165 q 83 1253 78 1224 q 90 1315 88 1283 q 78 1351 76 1335 q 93 1378 79 1367 q 124 1388 103 1388 q 137 1387 131 1388 q 151 1385 143 1386 q 185 1377 167 1382 q 222 1365 203 1372 q 247 1359 235 1363 q 271 1353 260 1356 q 388 1290 347 1333 q 422 1194 429 1247 q 421 1192 422 1192 l 421 1188 q 403 1064 413 1125 q 383 932 394 1003 l 322 557 q 313 495 318 525 q 304 435 308 465 l 300 394 q 299 389 299 393 l 297 346 l 297 342 q 299 340 299 340 q 300 338 299 339 q 303 331 300 333 q 315 317 306 324 q 331 306 318 314 l 332 304 q 335 302 335 303 q 339 300 336 301 l 342 299 q 347 297 344 297 q 353 296 350 297 q 424 236 400 278 m 368 168 q 365 206 374 188 q 329 233 356 224 q 324 235 328 235 q 294 242 317 236 q 248 260 272 249 q 205 290 224 272 q 189 335 186 308 l 203 328 q 218 321 210 325 q 238 314 226 317 l 238 315 q 236 317 236 315 q 233 333 233 325 q 232 346 232 340 l 232 347 l 233 392 l 233 401 l 235 414 l 239 443 q 248 505 243 474 q 257 567 253 536 l 318 943 q 328 1006 324 975 q 338 1064 332 1036 q 317 1078 325 1068 q 308 1101 308 1088 q 320 1128 308 1117 q 347 1140 332 1140 q 351 1167 350 1154 q 356 1196 353 1181 l 356 1197 l 356 1201 q 357 1204 356 1201 q 348 1237 360 1222 q 317 1264 336 1251 q 297 1258 310 1258 q 273 1267 283 1258 q 260 1288 263 1275 l 256 1288 q 230 1294 243 1290 q 204 1303 217 1299 q 180 1309 192 1306 q 157 1315 168 1313 q 149 1249 153 1282 q 140 1186 144 1215 q 135 1154 138 1171 q 131 1118 133 1138 q 153 1106 144 1115 q 163 1081 163 1096 q 151 1053 163 1065 q 124 1042 140 1042 q 122 1042 122 1042 q 119 1043 121 1043 q 98 913 108 978 q 76 776 88 847 l 67 719 q 49 610 58 665 q 32 499 40 556 l 32 497 q 28 462 29 479 q 24 425 26 444 q 22 415 22 419 q 21 403 22 410 l 19 343 q 28 229 18 275 q 64 136 39 175 q 121 85 85 103 q 190 68 151 68 l 190 35 l 192 68 q 256 79 224 68 q 318 111 289 90 q 356 144 339 126 q 361 153 358 147 l 363 153 q 364 157 363 156 q 368 168 365 160 m 214 1149 q 220 1165 214 1158 q 238 1172 226 1172 q 255 1165 249 1172 q 261 1149 261 1158 q 255 1131 261 1138 q 238 1124 249 1124 q 220 1131 226 1124 q 214 1149 214 1138 m 149 972 q 165 965 158 972 q 172 947 172 958 q 165 931 172 938 q 149 924 158 924 q 131 931 138 924 q 124 947 124 938 q 131 965 124 958 q 149 972 138 972 m 254 1017 q 268 1003 268 1017 q 254 990 268 990 q 242 1003 242 990 q 254 1017 242 1017 m 267 1197 q 258 1206 258 1197 q 267 1214 258 1214 q 274 1206 274 1214 q 267 1197 274 1197 m 228 1221 q 219 1199 228 1208 q 197 1190 210 1190 q 176 1199 185 1190 q 167 1221 167 1208 q 176 1243 167 1235 q 197 1251 185 1251 q 219 1243 210 1251 q 228 1221 228 1235 z "},"m":{"ha":883,"x_min":-49,"x_max":1003,"o":"m 453 -204 q 465 -224 458 -211 q 475 -249 472 -236 q 476 -273 478 -261 q 460 -289 474 -285 q 435 -285 440 -296 q 431 -256 429 -274 q 439 -222 433 -239 q 446 -197 444 -204 q 451 -197 451 -196 q 454 -201 451 -199 l 453 -204 m 840 1365 q 909 1345 878 1360 q 962 1310 940 1331 q 993 1264 983 1289 q 999 1213 1003 1239 q 936 799 965 989 q 911 635 924 717 q 888 481 899 553 q 868 351 876 408 q 856 265 860 294 q 837 186 849 225 q 807 113 825 147 q 766 51 789 78 q 714 8 743 24 q 714 -18 714 -6 q 706 -37 714 -31 q 687 -38 692 -51 q 679 -6 682 -25 q 666 -7 672 -7 q 651 -7 660 -7 l 633 -7 q 617 -3 625 -6 q 601 3 608 0 l 601 -17 q 602 -32 601 -21 q 601 -51 603 -43 q 594 -63 599 -60 q 579 -56 589 -67 q 572 -40 572 -49 q 572 -21 571 -31 q 574 -1 574 -11 q 572 18 575 8 q 541 51 554 31 q 517 96 528 71 q 507 85 511 90 q 496 78 503 81 q 479 14 485 46 q 475 -29 474 -18 q 482 -60 475 -36 q 491 -110 489 -85 q 486 -154 493 -136 q 453 -168 479 -172 q 436 -149 440 -167 q 431 -110 432 -132 q 431 -67 429 -89 q 431 -33 432 -46 q 431 -18 431 -28 q 433 1 432 -8 q 434 20 435 11 q 431 35 433 29 l 428 40 q 417 39 422 39 q 407 38 413 39 q 394 22 400 29 q 378 14 388 14 q 359 16 364 13 q 353 24 354 19 q 354 35 353 29 q 356 46 356 42 q 349 47 351 46 q 343 49 346 47 l 333 49 q 315 43 328 49 q 288 35 301 38 q 264 35 274 32 q 256 56 254 39 q 228 49 235 60 q 222 21 222 38 q 222 -14 221 4 q 215 -42 222 -32 q 190 -61 207 -57 q 165 -46 174 -65 q 166 -27 163 -39 q 171 -8 169 -15 q 172 -1 171 -4 q 174 7 174 3 q 114 -7 146 -7 l 96 -7 q 33 22 60 -1 q 33 6 33 14 q 36 -8 33 -1 q 48 -36 40 -25 q 49 -68 56 -47 q 31 -95 43 -83 q 0 -96 19 -107 q -14 -65 -17 -87 q -5 -17 -11 -43 q 3 34 1 8 q -14 76 4 60 l -11 76 q -42 184 -35 121 q -37 318 -49 247 l 113 1300 q 99 1327 106 1311 q 100 1358 93 1343 q 161 1388 115 1388 q 207 1383 182 1388 q 260 1374 232 1379 q 283 1369 272 1371 q 304 1365 294 1368 q 417 1317 372 1356 q 463 1231 461 1279 q 466 1203 464 1222 q 471 1147 468 1185 q 478 1049 474 1110 q 490 897 483 989 q 537 1019 513 957 q 583 1138 561 1082 q 622 1238 606 1194 q 647 1303 639 1282 q 635 1328 639 1314 q 639 1358 631 1343 q 697 1388 650 1388 q 744 1383 718 1388 q 796 1374 769 1379 q 819 1369 808 1371 q 840 1365 831 1368 m 932 1222 q 919 1254 935 1239 q 917 1238 919 1246 q 910 1228 915 1231 q 897 1222 901 1218 q 889 1235 892 1225 q 885 1258 886 1244 q 882 1283 883 1272 q 858 1292 871 1289 q 831 1299 844 1296 q 783 1307 808 1300 q 750 1313 767 1310 q 719 1317 733 1315 q 719 1300 721 1310 q 719 1299 719 1299 q 718 1296 718 1299 q 708 1268 718 1294 q 681 1199 697 1242 q 642 1100 664 1156 q 599 985 621 1044 q 554 869 576 926 q 514 764 532 811 q 485 693 504 740 q 429 575 465 646 q 433 613 432 589 q 433 736 435 651 l 433 739 l 433 740 q 422 901 428 819 q 410 1052 415 983 q 400 1167 404 1121 q 396 1222 396 1214 q 395 1224 396 1224 q 394 1228 394 1225 q 368 1267 394 1249 q 363 1233 364 1253 q 356 1206 363 1213 q 333 1192 346 1194 q 315 1206 319 1189 q 317 1220 313 1213 q 324 1235 321 1228 q 331 1264 329 1247 q 324 1292 332 1281 q 310 1294 317 1293 q 296 1299 304 1296 q 280 1281 283 1294 q 265 1264 276 1267 q 252 1266 256 1261 q 249 1277 249 1271 q 251 1291 249 1283 q 254 1303 253 1299 q 234 1299 242 1304 q 222 1284 226 1293 q 217 1265 218 1275 q 218 1244 217 1254 q 225 1223 221 1232 q 222 1197 229 1214 q 208 1177 218 1186 q 183 1178 197 1168 q 173 1203 172 1185 q 179 1243 174 1222 q 190 1284 185 1264 q 194 1315 196 1304 q 182 1317 190 1317 q 183 1301 183 1311 l 29 308 q 28 182 19 240 q 60 90 36 124 q 106 63 82 64 l 114 63 q 176 94 146 63 q 225 183 206 126 q 229 190 229 189 q 247 251 243 224 q 256 236 250 244 q 279 200 263 224 q 288 190 286 196 q 305 167 293 182 q 332 139 317 153 q 364 115 347 125 q 396 106 381 106 q 447 127 418 106 q 504 185 476 149 l 506 188 l 507 189 q 522 212 515 200 q 533 232 528 224 q 544 250 539 242 q 552 217 547 235 q 561 185 557 200 q 568 172 565 181 q 569 164 568 168 q 569 157 569 160 q 574 146 572 149 q 575 142 575 143 q 597 92 582 118 q 642 63 613 65 l 651 63 q 698 81 676 63 q 737 130 719 100 q 767 198 754 160 q 788 275 781 236 l 860 747 q 886 921 874 836 q 909 1072 899 1006 q 926 1181 919 1139 q 932 1222 932 1222 m 790 1215 q 797 1201 793 1210 q 803 1183 801 1193 q 803 1166 804 1174 q 793 1154 801 1158 q 780 1156 782 1149 q 779 1176 778 1164 q 783 1202 781 1189 q 788 1221 786 1215 q 790 1221 790 1222 q 792 1217 790 1219 l 790 1215 z "},"o":{"ha":636,"x_min":-42,"x_max":693,"o":"m 528 1336 q 577 1269 544 1322 q 638 1123 610 1217 q 679 892 665 1029 q 672 569 693 754 q 617 333 660 464 q 592 267 606 297 q 564 210 579 238 l 551 188 q 543 175 547 181 q 536 164 539 169 q 519 141 528 151 q 503 119 511 131 q 419 49 465 75 q 321 10 375 21 q 268 4 299 4 q 217 10 239 4 q 118 47 161 18 q 40 119 72 75 q -10 215 8 161 q -18 241 -14 228 q -25 268 -22 254 q -28 282 -26 275 q -31 296 -29 289 l -35 319 q -40 382 -37 350 q -42 451 -42 414 q -35 562 -40 506 q -19 686 -31 618 q 0 794 -11 740 q 25 907 11 849 q 39 963 32 936 q 54 1017 46 990 q 63 1045 58 1032 q 71 1072 67 1058 q 79 1099 75 1085 q 90 1131 83 1114 q 94 1139 93 1135 q 97 1149 94 1143 l 101 1157 l 101 1158 l 106 1167 q 124 1201 114 1188 q 146 1238 135 1221 q 169 1271 157 1256 q 202 1305 183 1286 q 250 1343 221 1324 q 317 1374 279 1363 q 408 1385 363 1389 l 414 1383 q 447 1378 431 1382 q 478 1367 463 1374 q 528 1336 507 1353 m 606 578 q 617 753 617 672 q 612 899 618 833 q 594 1016 606 964 q 572 1107 583 1068 q 519 1235 546 1192 q 485 1285 492 1278 q 451 1306 469 1297 q 407 1317 429 1315 l 403 1318 l 388 1318 q 336 1310 361 1318 q 286 1286 311 1304 q 248 1257 263 1272 q 222 1228 233 1242 q 182 1168 201 1206 q 174 1154 178 1161 q 167 1139 171 1147 l 163 1131 l 160 1122 q 156 1115 157 1118 q 153 1107 156 1111 q 142 1078 147 1092 q 135 1051 138 1064 q 126 1026 131 1039 q 118 999 122 1013 q 104 946 111 972 q 90 892 97 919 q 65 781 76 835 q 47 675 54 728 q 31 556 36 610 q 26 450 26 503 q 27 386 25 415 q 32 329 29 357 l 36 307 q 38 296 38 301 q 40 283 39 290 l 53 238 q 94 160 69 190 q 153 104 118 125 q 190 85 171 93 q 228 75 208 78 q 269 72 249 71 q 308 75 289 72 q 385 106 351 85 q 451 163 424 128 q 467 181 460 172 q 481 200 474 190 l 493 221 l 506 242 q 554 356 532 289 q 588 472 575 418 q 606 578 600 525 m 408 1082 l 408 1083 q 407 1089 407 1086 q 404 1096 407 1092 q 401 1101 404 1096 q 392 1108 396 1107 q 382 1111 386 1111 q 375 1110 376 1111 q 367 1106 368 1107 q 365 1105 365 1106 q 364 1104 365 1104 l 364 1103 l 363 1101 l 361 1100 q 358 1097 358 1097 q 357 1093 357 1094 q 356 1090 357 1092 q 353 1081 353 1082 q 348 1064 350 1072 q 343 1046 346 1056 q 331 978 336 1011 q 319 913 325 944 q 311 851 315 883 q 301 779 307 818 q 289 685 294 735 q 278 586 283 635 q 267 494 272 538 q 260 418 263 450 l 246 272 l 243 247 l 243 243 l 242 238 l 242 228 l 242 211 l 242 210 q 247 185 242 199 l 251 176 l 253 176 q 263 169 256 171 q 272 171 265 168 l 274 171 q 276 174 274 171 l 276 175 q 279 178 279 178 q 281 182 279 179 l 281 183 q 287 200 283 190 q 293 221 290 210 q 298 236 296 229 q 303 249 300 243 q 314 285 308 264 q 324 331 319 307 l 324 335 q 325 338 324 336 l 325 339 l 325 340 q 345 467 336 401 q 365 607 354 532 q 384 751 376 686 q 399 875 392 817 q 404 942 401 907 q 410 1011 407 976 l 410 1046 l 410 1047 q 410 1064 410 1056 q 408 1082 410 1072 m 410 1083 q 411 1064 411 1072 q 411 1047 411 1056 l 411 1046 l 411 1011 q 406 942 408 976 q 400 875 403 907 q 385 751 393 817 q 367 607 378 686 q 346 467 356 532 q 326 340 336 401 l 326 339 q 325 338 326 339 l 325 335 l 325 331 q 315 285 319 307 q 303 249 310 264 q 299 235 301 243 q 294 221 297 228 q 288 199 292 210 q 282 182 285 189 q 281 178 281 179 q 278 174 281 176 q 274 169 275 169 l 272 169 q 265 168 271 168 l 263 168 q 256 171 257 169 q 251 175 254 172 l 251 176 q 246 185 249 178 q 240 210 243 193 l 240 211 l 240 228 l 240 238 l 242 243 l 242 247 l 244 272 l 258 418 q 266 494 261 450 q 276 586 271 538 q 288 685 282 635 q 300 779 293 735 q 310 851 306 819 q 318 913 314 883 q 329 978 324 944 q 342 1047 335 1011 q 347 1064 344 1056 q 351 1082 349 1072 q 354 1092 351 1083 q 358 1097 357 1094 q 360 1100 358 1097 q 361 1103 361 1101 l 363 1104 l 364 1104 q 365 1106 364 1106 q 365 1107 365 1106 q 375 1111 371 1110 q 382 1113 376 1113 q 392 1110 386 1113 q 401 1103 399 1108 q 406 1096 403 1101 q 408 1089 408 1092 q 410 1083 408 1086 m 410 1046 l 410 1047 q 410 1064 410 1056 q 408 1082 410 1072 l 408 1083 q 407 1089 407 1086 q 404 1096 407 1092 q 401 1101 404 1096 q 392 1108 396 1107 q 382 1111 386 1111 q 375 1110 376 1111 q 367 1106 368 1107 q 365 1105 365 1106 q 364 1104 365 1104 l 364 1103 l 363 1101 l 361 1100 q 358 1097 358 1097 q 357 1093 357 1094 q 356 1090 357 1092 q 353 1081 353 1082 q 348 1064 350 1072 q 343 1046 346 1056 q 331 978 336 1011 q 319 913 325 944 q 311 851 315 883 q 301 779 307 818 q 289 685 294 735 q 278 586 283 635 q 267 494 272 538 q 260 418 263 450 l 246 272 l 243 247 l 243 243 l 242 238 l 242 228 l 242 211 l 242 210 q 247 185 242 199 l 251 176 l 253 176 q 263 169 256 171 q 272 171 265 168 l 274 171 q 276 174 274 171 l 276 175 q 279 178 279 178 q 281 182 279 179 l 281 183 q 287 200 283 190 q 293 221 290 210 q 298 236 296 229 q 303 249 300 243 q 314 285 308 264 q 324 331 319 307 l 324 335 q 325 338 324 336 l 325 339 l 325 340 q 345 467 336 401 q 365 607 354 532 q 384 751 376 686 q 399 875 392 817 q 404 942 401 907 q 410 1011 407 976 l 410 1046 z "}," ":{"ha":426,"x_min":0,"x_max":0,"o":""},"a":{"ha":797,"x_min":-44,"x_max":867,"o":"m 857 1033 q 865 899 865 971 q 866 838 867 868 q 863 772 865 807 q 838 531 857 663 q 808 352 826 447 q 769 176 789 257 q 733 83 754 115 q 693 32 713 51 q 649 8 674 13 q 606 3 625 3 q 549 11 571 3 q 463 218 471 38 l 318 218 q 315 200 317 208 q 311 182 314 192 l 311 181 q 290 108 304 138 q 249 54 275 78 q 119 4 192 0 q 52 17 82 7 q -6 51 22 28 q -33 88 -25 67 q -42 134 -40 110 q -42 185 -44 158 q -35 238 -39 211 q -34 239 -35 239 q -33 240 -33 239 l -33 246 q -32 251 -32 247 q 15 488 -11 374 q 72 715 40 601 q 108 837 90 781 q 146 946 126 893 q 169 1006 157 978 q 192 1063 181 1035 q 224 1128 208 1099 q 254 1185 239 1157 l 265 1203 q 274 1215 269 1210 q 282 1226 278 1221 q 301 1251 292 1240 q 319 1274 310 1263 q 408 1349 360 1319 q 517 1383 464 1379 q 629 1374 578 1390 q 800 1226 740 1339 q 842 1117 828 1178 q 845 1102 844 1110 q 849 1088 846 1094 l 851 1069 q 855 1051 854 1060 q 857 1033 856 1042 m 796 776 q 798 839 797 808 q 799 897 799 869 q 796 965 797 933 q 790 1025 794 996 q 788 1042 789 1033 q 786 1057 788 1050 l 782 1075 q 780 1087 781 1081 q 776 1100 779 1093 q 761 1151 769 1128 q 742 1194 753 1175 q 610 1308 694 1282 q 524 1317 569 1321 q 443 1290 479 1313 q 369 1229 404 1268 q 353 1209 361 1219 q 338 1188 346 1199 q 330 1177 333 1182 q 322 1167 326 1172 l 313 1149 q 254 1036 282 1100 q 231 982 243 1010 q 208 922 219 954 q 138 697 171 822 q 81 472 106 585 q 35 240 56 360 l 35 238 l 33 235 l 33 232 l 32 228 q 24 149 25 182 q 38 103 22 115 q 76 81 57 88 q 124 71 96 74 q 203 103 167 68 q 230 138 221 118 q 244 190 239 158 q 246 193 244 192 q 251 226 249 210 q 257 258 254 242 q 269 278 260 269 q 290 286 278 286 l 496 285 q 519 276 510 285 q 529 251 529 267 q 529 238 529 244 q 531 224 529 231 q 547 110 533 142 q 571 74 561 78 q 585 71 576 72 q 606 69 594 69 q 632 73 622 69 q 646 79 642 76 q 677 119 661 94 q 704 192 693 144 q 742 364 724 271 q 771 540 760 457 q 787 663 781 606 q 796 776 793 721 m 576 1000 q 581 951 579 976 q 582 897 582 925 q 583 846 583 872 q 579 790 582 819 q 571 685 576 739 q 557 569 565 631 q 555 550 556 560 q 551 531 554 540 q 550 525 551 526 q 549 503 550 518 q 543 463 547 489 q 535 479 540 472 q 519 492 529 486 q 490 501 510 499 l 369 501 q 337 494 350 499 q 315 488 324 490 q 300 479 306 483 q 309 507 306 494 q 315 528 313 519 l 319 544 q 332 590 326 568 q 343 632 338 613 q 376 743 360 692 q 410 843 392 794 q 429 895 419 871 q 449 943 439 919 q 494 1033 472 997 l 501 1046 q 503 1047 503 1046 q 506 1051 506 1050 q 508 1054 507 1053 q 526 1063 515 1061 q 544 1063 536 1065 q 568 1040 563 1056 q 569 1038 569 1039 q 571 1035 569 1036 l 571 1032 l 572 1024 q 574 1011 574 1017 q 576 1000 575 1006 m 513 793 q 515 847 515 821 q 515 896 515 872 q 515 911 515 904 q 514 925 515 918 q 513 920 513 922 q 511 915 513 918 q 472 819 490 871 q 440 723 456 774 q 408 614 424 672 q 402 592 406 603 q 396 568 399 581 l 489 568 q 490 574 489 571 q 490 579 490 576 q 504 692 499 639 q 513 793 510 744 z "},"b":{"ha":744,"x_min":-47,"x_max":826,"o":"m 804 1083 q 825 932 824 1013 q 826 896 826 914 q 824 858 825 878 q 822 841 822 850 q 819 822 821 832 q 818 813 818 817 q 817 803 818 808 l 804 732 q 798 700 801 715 q 790 671 794 685 q 774 607 783 639 l 765 581 l 760 567 q 749 539 754 551 q 736 514 743 526 q 729 501 733 507 q 722 488 725 494 q 739 342 747 417 q 731 297 736 319 q 715 254 725 275 l 708 239 l 700 222 q 692 207 696 215 q 682 192 688 199 q 637 134 663 161 q 582 86 611 107 q 457 24 525 44 q 394 10 426 14 q 329 4 363 6 l 324 4 q 204 32 263 4 q 121 6 167 6 q 81 10 101 6 q -21 110 6 26 q -19 328 -47 193 l 186 1299 q 175 1326 179 1310 q 179 1357 171 1342 q 195 1374 183 1365 q 231 1383 207 1383 q 275 1378 250 1383 q 325 1367 300 1374 q 351 1372 336 1369 q 390 1375 367 1375 q 542 1350 454 1375 q 579 1338 561 1344 q 617 1321 597 1331 l 642 1308 l 642 1307 l 650 1303 q 656 1299 653 1301 l 664 1293 q 688 1274 676 1283 q 711 1253 700 1264 q 772 1167 744 1217 q 790 1127 782 1147 q 804 1083 797 1107 m 757 864 q 759 897 758 881 q 758 931 760 914 q 753 1001 757 968 q 739 1065 749 1033 q 726 1103 733 1085 q 713 1136 719 1121 q 690 1174 701 1157 q 663 1207 678 1192 q 626 1239 644 1224 l 619 1243 q 615 1246 618 1243 l 604 1251 l 588 1260 q 524 1286 551 1279 q 390 1307 446 1307 q 368 1306 376 1307 q 353 1304 360 1306 q 342 1301 346 1303 q 319 1299 332 1296 l 315 1300 q 284 1307 300 1303 q 254 1314 268 1311 q 254 1297 256 1306 l 46 314 q 38 149 25 214 q 94 75 51 85 q 108 73 101 74 q 121 72 114 72 q 175 94 156 72 q 200 106 186 106 q 218 100 211 106 q 269 78 242 86 q 324 71 296 71 l 328 71 q 438 88 386 74 q 493 110 467 97 q 543 140 519 122 q 626 228 592 176 q 634 241 631 235 q 642 254 638 247 q 644 260 643 257 q 647 267 646 264 l 654 281 q 672 350 668 311 q 653 478 681 415 q 657 511 646 496 q 667 527 663 518 q 678 544 672 536 q 688 567 683 556 q 697 590 693 578 l 704 611 l 710 626 q 718 655 714 640 q 725 686 722 669 q 731 714 728 700 q 738 744 735 728 l 751 814 q 752 822 751 818 q 753 831 753 826 l 757 864 m 451 401 q 453 398 453 399 q 456 394 454 397 q 458 375 460 385 q 457 365 458 368 q 454 360 454 360 l 453 356 q 449 350 450 353 q 446 344 449 347 q 417 314 432 325 q 375 293 400 301 q 365 290 371 293 q 313 274 335 285 q 275 250 290 263 q 244 219 257 235 q 251 249 247 233 q 258 280 256 265 q 264 306 261 294 q 267 321 267 317 q 268 324 267 322 l 285 408 q 315 435 292 432 l 319 435 q 336 436 325 436 l 339 436 l 340 436 q 369 435 356 436 q 396 431 383 433 q 438 414 424 424 q 444 409 442 411 q 450 404 447 407 l 450 403 q 451 401 451 403 m 356 357 q 375 367 367 361 q 361 369 368 368 q 346 369 354 369 l 342 354 q 349 356 346 356 q 356 357 353 356 m 532 1008 q 540 969 538 990 q 544 928 543 949 q 544 906 544 917 q 543 883 544 894 q 542 872 543 876 q 540 861 542 867 l 539 851 l 528 786 q 522 760 525 772 q 517 736 519 747 q 504 690 510 711 l 500 675 l 500 674 l 499 674 l 499 671 q 486 656 496 663 q 469 647 481 650 l 465 647 l 456 647 l 431 647 q 383 636 403 644 q 350 617 364 628 q 324 590 335 604 q 335 642 329 614 q 344 685 342 671 l 344 690 l 422 1054 q 439 1076 425 1069 q 467 1079 450 1083 q 501 1056 478 1075 q 532 1008 524 1038 m 476 889 q 478 906 478 897 q 478 925 478 915 q 476 947 476 936 q 472 969 475 958 l 418 714 l 442 714 q 447 731 444 722 q 451 751 449 740 q 457 774 454 763 q 463 799 460 786 l 475 871 q 476 879 475 875 q 476 889 476 883 z "},"c":{"ha":621,"x_min":-35,"x_max":739,"o":"m 738 1092 q 731 1049 738 1072 q 690 982 718 1007 q 594 943 649 943 q 560 947 578 943 q 458 1004 504 961 q 436 1026 444 1015 q 403 949 414 996 q 401 942 401 946 q 400 936 401 939 l 397 921 l 390 881 l 378 801 q 366 725 371 764 q 354 649 361 686 q 341 561 347 606 q 328 472 335 517 q 321 428 325 449 q 314 388 317 407 l 303 328 q 306 326 304 326 q 317 325 310 325 q 333 328 321 325 q 358 335 344 332 q 382 342 371 339 q 397 347 393 346 l 400 349 q 435 363 417 356 q 476 368 454 369 q 524 350 500 367 q 554 304 544 332 q 561 239 565 274 q 555 203 561 226 q 532 153 549 181 l 528 146 q 526 142 526 143 q 524 139 525 142 l 522 138 q 516 128 519 132 q 510 119 513 124 q 476 83 493 99 q 378 24 435 46 q 275 7 329 7 q 260 7 268 7 q 244 8 251 7 q 229 10 235 8 l 228 10 q 211 13 217 13 q 179 21 201 14 q 103 53 140 31 q 32 111 63 76 q -14 188 1 146 q -35 276 -31 229 q -35 299 -35 288 q -33 321 -35 310 q -33 333 -33 328 q -32 343 -32 338 l -31 354 l -29 356 l -14 446 q -6 485 -10 465 q 0 526 -3 504 q 13 611 7 568 q 25 696 19 654 q 38 776 32 736 q 50 856 43 815 l 64 940 l 74 996 l 76 1010 q 83 1038 78 1022 q 122 1144 99 1094 q 152 1201 136 1175 q 188 1250 168 1226 q 238 1301 208 1278 q 244 1307 240 1304 q 253 1313 249 1310 q 256 1315 254 1314 q 261 1319 258 1317 q 266 1322 264 1321 q 271 1325 268 1324 q 290 1338 281 1332 q 310 1349 299 1343 q 485 1381 392 1389 q 572 1358 529 1376 q 646 1308 614 1339 q 732 1153 708 1247 l 732 1151 q 735 1135 735 1143 q 738 1121 736 1128 q 738 1106 738 1113 q 738 1092 739 1099 m 675 1094 q 674 1103 675 1099 q 674 1114 674 1108 q 672 1126 672 1121 q 669 1136 672 1131 l 669 1138 l 669 1139 q 601 1261 653 1214 q 478 1317 550 1310 q 406 1313 442 1319 q 338 1290 369 1307 q 322 1283 329 1288 q 306 1272 314 1278 q 299 1267 303 1271 q 292 1263 293 1264 q 279 1251 286 1258 q 236 1210 258 1235 q 206 1167 221 1189 q 179 1117 192 1144 q 144 1021 158 1071 q 141 1008 142 1014 q 139 996 140 1003 l 133 972 l 126 931 l 113 846 q 100 766 106 806 q 89 686 94 726 q 76 601 82 644 q 63 517 69 558 q 56 474 60 494 q 50 435 53 454 l 33 344 l 32 335 q 31 326 31 331 q 29 317 31 322 l 29 281 q 34 244 31 261 q 44 211 38 228 q 136 108 71 146 q 165 94 150 100 q 197 82 181 88 q 212 78 206 79 q 224 75 218 76 q 231 74 226 75 q 238 74 235 74 l 239 72 q 250 71 246 72 l 275 71 q 317 74 296 71 q 357 85 338 78 q 397 103 378 92 q 433 131 417 115 q 447 144 440 138 q 460 158 453 151 q 469 172 465 167 l 469 174 q 472 178 472 176 l 478 188 q 494 222 490 207 q 499 244 497 238 q 494 283 501 267 q 489 294 492 290 q 483 300 486 297 q 472 304 479 304 l 471 304 q 449 300 460 304 q 426 290 439 296 l 424 289 q 404 282 419 286 q 372 274 389 278 q 341 265 356 269 q 321 261 326 261 l 318 261 q 281 248 294 257 q 261 229 268 239 q 251 207 254 218 q 239 240 242 222 q 235 274 236 258 q 235 308 233 290 l 236 307 l 236 310 l 236 311 l 236 317 l 251 399 q 258 439 254 418 q 265 482 261 460 q 278 571 272 526 q 292 658 285 615 q 303 734 297 696 q 314 811 308 772 l 328 892 l 338 949 l 342 965 q 364 1027 350 997 q 393 1076 378 1057 q 401 1086 397 1082 q 408 1094 406 1090 l 410 1094 l 413 1097 l 414 1099 q 446 1124 425 1110 q 492 1144 467 1139 q 481 1121 483 1135 q 481 1092 478 1110 q 501 1051 485 1074 q 574 1010 536 1018 q 646 1028 618 1000 q 669 1067 663 1043 q 673 1081 672 1074 q 675 1094 674 1088 z "},"d":{"ha":681,"x_min":-36,"x_max":760,"o":"m 744 1050 q 753 963 751 1004 q 758 888 756 922 q 759 814 760 851 q 757 735 758 776 q 732 435 753 579 q 726 396 729 415 q 719 358 722 376 q 713 319 717 340 q 701 275 708 299 q 695 253 699 264 q 686 226 692 242 q 681 213 683 221 q 672 196 678 206 l 672 194 q 663 176 668 186 q 646 151 657 165 q 639 143 644 149 l 625 128 l 619 121 q 608 110 613 114 q 597 100 603 106 q 574 81 586 90 q 550 65 561 72 q 392 7 478 18 q 368 4 381 4 q 344 4 356 4 q 239 19 292 4 q 213 30 226 25 q 189 42 200 35 q 85 18 140 6 q 21 54 47 26 q -19 124 -6 82 q -35 222 -33 167 q -22 342 -36 278 l 183 1292 q 172 1318 176 1303 q 175 1349 168 1333 q 192 1367 181 1358 q 226 1375 203 1375 q 300 1363 254 1375 l 301 1364 q 350 1381 324 1374 q 403 1382 372 1385 q 410 1381 406 1382 q 418 1379 415 1381 q 536 1340 476 1371 q 582 1313 560 1328 q 626 1282 604 1299 q 644 1267 632 1278 q 658 1253 656 1256 l 660 1251 q 674 1235 669 1242 q 683 1224 679 1229 l 683 1222 q 707 1182 700 1200 q 715 1165 711 1174 q 721 1149 718 1157 q 735 1096 731 1119 q 744 1050 740 1072 m 692 738 q 692 885 693 817 q 688 957 690 918 q 679 1039 686 996 q 672 1081 676 1060 q 658 1126 667 1101 q 653 1140 656 1133 q 647 1153 650 1146 q 629 1185 642 1167 q 623 1194 626 1190 q 613 1206 619 1199 q 597 1220 606 1213 q 585 1231 588 1228 q 546 1258 565 1246 q 507 1282 526 1271 q 408 1314 457 1306 q 402 1315 407 1315 q 396 1317 397 1315 q 378 1317 388 1317 q 361 1315 369 1317 q 347 1310 354 1313 q 332 1306 339 1308 q 328 1303 329 1304 q 324 1300 326 1301 q 297 1296 311 1292 q 275 1301 288 1299 q 250 1306 263 1303 q 250 1290 251 1297 l 43 328 q 31 238 32 281 q 38 163 31 196 q 61 109 46 131 q 99 83 76 88 q 164 107 131 75 q 188 117 174 117 q 207 110 197 117 q 260 83 232 92 q 383 72 319 64 q 514 119 456 81 q 553 150 535 135 q 563 158 558 154 q 572 168 567 163 l 589 186 q 593 190 589 186 q 613 224 607 210 q 619 238 617 232 q 624 250 621 244 q 631 273 628 263 q 638 293 635 283 q 648 335 644 315 q 654 369 651 354 q 667 444 660 404 q 692 738 686 585 m 471 1001 q 479 883 478 951 q 479 747 482 821 q 476 690 479 726 q 469 610 472 653 q 460 522 465 567 q 451 440 456 478 q 442 376 446 403 q 438 344 439 350 q 424 321 433 333 q 414 310 418 315 l 397 297 q 382 288 390 292 q 364 278 374 283 l 363 276 q 348 269 356 272 q 331 261 340 265 q 316 253 324 257 q 301 247 308 250 l 296 244 q 265 223 278 233 q 244 204 253 213 q 228 185 235 194 q 235 218 231 200 q 243 251 240 236 q 250 288 247 269 l 251 288 l 401 989 l 406 1003 q 408 1011 406 1006 q 412 1038 411 1026 q 413 1058 413 1050 q 410 1075 411 1068 q 447 1051 433 1072 q 465 1014 460 1031 q 471 1001 468 1010 m 375 365 q 382 419 376 378 q 393 515 388 461 q 403 625 399 569 q 411 719 408 681 l 328 333 q 346 343 338 339 q 361 353 354 347 q 365 356 364 354 q 369 358 367 357 q 375 365 371 361 z "},"f":{"ha":565,"x_min":-44,"x_max":742,"o":"m 736 1238 q 736 1169 742 1201 q 715 1109 731 1136 q 675 1064 699 1082 q 622 1042 651 1046 l 619 1042 q 615 1040 618 1040 l 442 1011 l 358 528 l 400 528 q 458 494 432 528 q 483 389 483 461 q 461 288 483 326 q 403 250 439 250 q 355 250 379 250 q 307 249 331 250 q 251 108 286 169 q 110 3 190 3 q 94 4 100 3 q -21 138 10 15 q -21 378 -44 239 l 124 1217 q 106 1228 114 1222 q 93 1246 97 1235 q 94 1275 89 1263 q 115 1297 101 1290 q 143 1310 128 1304 q 147 1310 144 1310 q 161 1313 149 1311 q 199 1319 174 1315 q 272 1332 225 1324 q 389 1353 318 1340 q 564 1385 460 1367 l 565 1385 q 585 1386 571 1386 q 682 1344 639 1386 q 736 1238 725 1301 m 613 1107 q 660 1149 643 1114 q 669 1226 676 1183 q 635 1296 663 1268 q 576 1319 608 1324 q 574 1318 576 1319 q 468 1300 525 1310 q 358 1281 411 1290 q 259 1263 304 1271 q 188 1250 214 1254 q 190 1244 190 1247 q 192 1242 190 1244 q 194 1233 193 1238 q 193 1224 194 1228 l 44 367 q 44 153 24 240 q 51 131 46 144 q 63 104 56 117 q 79 82 69 92 q 103 71 89 72 q 110 69 106 69 q 157 93 136 69 q 193 142 178 117 q 221 201 208 168 q 243 269 233 233 q 231 290 239 282 q 217 304 224 299 q 197 315 208 310 q 244 317 217 317 q 290 315 272 317 q 345 317 318 317 q 400 317 372 317 q 410 336 403 319 q 417 389 417 353 q 409 442 417 425 q 397 461 401 458 l 319 460 l 318 460 q 293 472 306 460 q 286 500 282 483 l 378 1033 q 366 1049 374 1043 q 350 1057 358 1054 q 329 1063 340 1061 q 365 1067 344 1064 q 403 1072 385 1069 q 407 1074 406 1072 l 606 1107 l 610 1107 l 613 1107 z "},"g":{"ha":690,"x_min":-36,"x_max":776,"o":"m 757 1208 q 772 1149 768 1181 q 769 1086 776 1117 q 763 1058 767 1071 q 754 1033 760 1046 l 754 1032 q 740 1013 749 1021 q 734 1003 738 1007 q 728 997 731 1000 q 626 956 686 956 q 590 960 608 956 q 483 1021 538 972 l 474 1031 l 472 1031 l 471 1031 l 467 1031 q 460 1023 464 1028 q 450 1011 456 1018 q 429 969 438 992 q 422 947 424 957 l 421 935 l 356 542 q 394 553 374 553 q 515 554 456 554 q 635 554 574 554 q 680 540 664 554 q 703 505 696 525 q 711 465 710 485 q 713 433 713 444 l 713 428 q 711 379 713 404 q 703 332 710 354 q 681 294 696 310 q 638 276 665 279 l 633 276 l 622 276 l 622 274 q 610 224 618 249 q 592 176 603 200 l 588 168 l 588 167 l 585 163 q 575 146 579 151 q 565 129 569 138 q 553 114 560 121 q 524 83 539 97 q 492 57 508 69 q 416 19 457 33 q 332 3 375 6 q 321 2 326 3 q 308 1 315 1 q 278 3 293 1 q 249 7 264 4 q 239 8 243 8 q 229 10 235 8 q 211 14 218 13 q 200 17 206 17 q 189 21 194 18 q 167 28 179 22 q 14 144 67 64 q -24 231 -12 183 q -32 331 -36 279 q -29 353 -31 342 q -25 378 -28 364 l -15 443 l 78 997 q 85 1032 79 1017 q 93 1065 89 1049 q 104 1096 97 1081 q 167 1214 129 1158 q 274 1321 213 1279 q 310 1342 289 1332 q 330 1353 321 1349 q 350 1361 339 1357 q 397 1375 374 1369 q 444 1383 421 1381 q 464 1385 454 1385 q 483 1386 474 1386 q 631 1350 565 1386 q 705 1292 672 1328 q 757 1211 738 1256 l 757 1208 m 704 1097 q 706 1142 708 1119 q 696 1183 703 1164 q 694 1185 694 1183 l 694 1186 q 599 1292 664 1258 q 483 1318 551 1318 q 467 1318 475 1318 q 451 1317 460 1318 q 374 1299 408 1313 q 358 1292 365 1296 q 340 1283 350 1288 q 326 1275 333 1279 q 311 1265 318 1271 q 263 1225 286 1247 q 221 1175 240 1203 q 167 1072 190 1131 q 150 1017 156 1044 q 147 1003 147 1010 q 143 986 146 996 l 40 365 q 36 344 38 354 q 35 325 35 335 q 69 182 28 243 q 120 128 89 151 q 189 92 151 106 q 208 85 203 86 q 218 82 213 83 q 228 79 224 81 q 235 77 232 78 q 243 76 239 76 q 258 72 247 75 q 328 69 297 68 q 453 113 399 74 q 501 156 478 131 l 518 181 q 522 188 521 183 q 526 194 524 192 l 531 204 q 556 285 549 243 q 558 299 557 292 q 560 313 558 306 q 570 334 561 325 q 593 343 579 343 l 631 343 l 633 343 q 640 353 638 344 q 644 375 643 363 q 646 402 646 388 q 646 428 646 417 l 646 433 q 642 476 646 467 q 638 488 638 486 l 635 488 l 633 488 q 514 488 572 488 q 396 486 456 488 q 383 481 389 486 q 375 472 378 476 q 366 451 371 465 q 364 414 361 438 q 369 377 365 390 q 379 357 374 364 q 382 347 382 349 q 399 323 389 336 q 422 303 410 310 q 399 290 413 296 q 371 283 388 286 q 331 283 354 281 l 328 283 q 317 283 324 283 q 299 285 310 283 q 273 290 282 288 q 257 303 264 293 q 251 328 250 315 l 251 329 l 263 394 l 356 954 l 356 956 l 357 961 q 367 992 361 981 q 394 1049 376 1022 q 406 1063 400 1057 l 404 1063 q 447 1103 425 1085 q 490 1133 467 1118 q 536 1154 513 1147 q 518 1128 524 1142 q 514 1101 513 1117 q 531 1069 515 1085 q 606 1025 569 1033 q 626 1022 619 1022 q 681 1044 656 1022 q 688 1053 686 1050 q 693 1061 690 1056 q 699 1078 697 1069 q 704 1097 701 1088 m 332 331 q 344 329 339 329 q 346 331 349 329 q 333 348 338 336 q 326 372 328 360 q 324 396 324 385 q 324 410 324 407 q 322 408 322 410 q 319 399 322 408 l 308 338 q 319 331 308 331 q 332 331 325 329 m 324 410 q 322 408 322 410 q 319 399 322 408 l 308 338 q 319 331 308 331 q 332 331 325 329 q 344 329 339 329 q 346 331 349 329 q 333 348 338 336 q 326 372 328 360 q 324 396 324 385 q 324 410 324 407 z "},"h":{"ha":703,"x_min":-46,"x_max":851,"o":"m 847 1207 q 846 1204 847 1206 l 704 271 q 679 174 696 222 q 637 86 663 125 q 578 24 611 47 q 503 0 544 0 q 493 1 497 0 q 483 1 489 1 q 379 80 417 11 q 344 256 342 149 l 318 256 q 292 163 310 208 q 249 81 274 117 q 190 22 224 44 q 118 0 157 0 q 109 1 114 0 q 100 1 104 1 q 10 57 46 10 q -34 172 -22 101 q -33 325 -46 242 l 115 1297 q 103 1324 108 1308 q 106 1356 97 1339 q 164 1385 118 1385 q 209 1381 183 1385 q 261 1371 235 1376 q 307 1363 286 1367 q 375 1342 344 1357 q 426 1307 406 1328 q 458 1261 447 1286 q 464 1210 468 1236 q 463 1207 464 1210 l 463 1204 l 361 540 l 383 540 l 500 1297 q 487 1324 492 1308 q 489 1356 482 1339 q 547 1385 501 1385 q 593 1381 568 1385 q 644 1371 618 1376 q 690 1363 669 1367 q 758 1342 728 1357 q 810 1307 789 1328 q 841 1261 831 1286 q 847 1210 851 1236 l 847 1207 m 779 1222 q 754 1265 782 1242 q 681 1296 726 1289 q 632 1304 657 1299 q 600 1310 617 1307 q 569 1314 583 1313 q 569 1299 572 1307 l 447 499 q 431 475 444 482 q 407 471 419 468 q 374 472 400 471 q 321 472 349 472 q 296 483 304 472 q 288 511 285 496 l 394 1214 l 394 1215 q 395 1217 394 1217 q 396 1219 396 1218 l 396 1222 q 370 1265 399 1242 q 296 1296 342 1289 q 249 1304 272 1299 q 217 1310 233 1307 q 185 1314 200 1313 q 186 1299 186 1310 l 35 314 q 32 188 24 246 q 64 99 40 131 q 110 69 85 74 l 118 69 q 186 111 156 69 q 236 211 217 153 q 240 235 238 219 q 242 272 243 251 q 237 317 242 293 q 219 368 232 342 q 226 356 221 364 q 242 341 232 349 q 269 328 253 333 q 308 324 285 322 q 344 324 326 324 q 381 325 363 324 q 382 324 382 325 q 408 328 397 324 q 426 340 419 333 q 440 358 435 347 q 422 260 426 306 q 415 194 417 214 q 442 108 422 142 q 493 69 463 74 l 503 69 q 548 88 526 69 q 587 136 569 106 q 617 204 604 167 q 636 282 629 242 l 779 1214 l 779 1215 l 779 1219 l 779 1222 m 219 368 q 218 371 218 369 q 219 368 218 371 z "},"i":{"ha":317,"x_min":-42,"x_max":431,"o":"m 317 931 q 379 887 357 913 q 397 831 401 861 l 397 828 l 396 826 l 300 190 q 279 121 293 154 q 243 61 265 88 q 126 4 194 4 q 115 4 121 4 q 104 6 110 4 q -10 89 29 17 q -29 240 -42 154 l 71 897 q 58 917 64 906 q 58 943 53 928 q 110 969 68 969 q 153 965 128 969 q 113 1021 128 989 q 97 1089 97 1053 q 121 1156 97 1125 q 172 1218 144 1188 q 213 1265 194 1242 q 232 1308 232 1288 q 246 1345 232 1336 q 271 1354 260 1354 q 283 1353 275 1354 q 304 1341 292 1351 q 333 1308 317 1331 q 374 1246 350 1286 q 389 1215 379 1233 q 408 1174 399 1196 q 424 1129 418 1151 q 431 1089 431 1107 q 398 990 431 1033 q 317 931 365 947 m 219 1174 q 179 1128 197 1150 q 161 1089 161 1107 q 192 1016 161 1046 q 264 986 222 986 q 337 1016 307 986 q 367 1089 367 1046 q 359 1125 367 1103 q 340 1172 351 1147 q 314 1222 328 1197 q 288 1264 300 1246 q 258 1217 276 1239 q 219 1174 239 1196 m 333 840 q 308 863 332 847 q 238 886 283 879 q 215 890 226 889 q 193 894 204 892 q 164 899 178 897 q 136 904 150 901 l 136 901 l 33 231 q 47 118 25 164 q 71 88 56 103 q 113 68 86 72 l 126 68 q 194 103 165 68 q 221 147 210 122 q 236 200 232 172 l 333 835 l 333 840 m 168 1264 q 144 1281 153 1268 q 140 1310 136 1294 q 146 1320 142 1313 q 171 1351 150 1328 q 199 1379 193 1375 q 210 1383 204 1383 q 224 1375 219 1383 q 226 1369 225 1374 q 224 1358 226 1365 q 212 1328 213 1336 q 213 1313 211 1319 q 214 1289 217 1303 q 178 1263 207 1263 q 168 1264 171 1263 m 181 1313 q 175 1306 178 1310 q 171 1301 172 1303 q 172 1297 171 1299 q 174 1296 172 1296 q 176 1294 174 1296 q 181 1294 179 1293 q 183 1297 183 1296 l 183 1303 q 181 1313 181 1311 z "},"j":{"ha":746,"x_min":-67,"x_max":871,"o":"m 863 1135 q 826 1033 857 1075 q 751 981 796 992 q 736 889 743 935 q 722 800 729 843 l 676 503 q 665 431 671 469 q 651 351 658 392 q 643 310 647 329 q 636 274 639 292 l 631 246 q 625 226 628 235 q 619 207 622 217 q 604 169 613 188 q 585 135 596 151 q 461 31 538 65 q 336 7 403 7 q 319 7 328 7 q 303 8 311 7 q 284 10 294 8 q 265 13 274 11 l 249 15 q 242 17 246 17 q 235 19 238 18 q 165 44 196 28 q 128 65 146 53 q 96 89 111 76 q 68 116 81 101 q 43 147 56 131 q 19 188 29 167 q -1 232 8 208 q -5 242 -4 238 q -8 253 -6 247 q -10 257 -8 256 q -12 268 -11 263 q -15 279 -14 274 q -17 287 -17 283 q -18 294 -18 290 q -19 301 -19 297 q -21 308 -19 306 q -22 322 -22 315 q -22 335 -22 328 q -15 418 -24 376 l -15 419 q -12 569 -67 442 q 79 678 36 678 q 94 674 88 678 l 96 674 l 97 674 q 206 626 151 650 q 315 578 260 601 q 333 567 325 572 l 378 858 q 391 940 385 899 q 404 1024 397 981 q 331 1037 365 1031 q 285 1049 296 1043 q 253 1080 265 1058 q 235 1129 240 1101 q 231 1189 231 1157 q 239 1251 232 1221 q 286 1349 254 1314 q 361 1385 318 1385 q 367 1384 364 1385 q 372 1383 369 1383 l 375 1383 l 376 1383 l 582 1350 q 668 1337 625 1343 q 756 1324 711 1331 q 838 1267 808 1315 q 863 1135 871 1215 m 324 401 q 329 404 326 404 q 331 392 332 404 q 324 364 326 378 q 322 340 321 353 q 328 318 322 328 q 311 335 318 326 q 299 349 304 342 q 293 363 294 357 l 307 379 q 317 392 313 386 q 324 401 322 399 m 796 1142 q 781 1232 801 1197 q 746 1257 767 1254 q 658 1270 701 1264 q 571 1283 614 1276 l 368 1317 l 363 1317 l 361 1317 q 342 1310 350 1317 q 327 1293 333 1303 q 316 1273 321 1283 q 310 1256 311 1263 q 299 1206 301 1231 q 299 1161 297 1182 q 304 1126 300 1140 q 314 1108 308 1113 q 331 1104 318 1107 q 363 1099 344 1101 q 401 1092 381 1096 q 443 1086 422 1089 l 514 1075 q 497 1064 504 1072 q 483 1042 490 1057 q 469 1000 476 1026 q 457 922 463 961 q 444 847 451 883 l 399 550 q 387 481 393 519 q 374 403 381 443 q 365 357 369 378 q 372 310 365 326 q 385 288 378 294 q 404 276 393 279 q 331 274 360 264 q 283 300 301 285 l 282 301 q 279 303 281 303 q 272 311 278 306 q 265 324 269 317 q 254 340 260 332 q 253 342 254 342 q 253 343 253 342 q 249 349 250 346 q 247 351 249 349 q 242 374 240 363 q 256 393 244 386 q 289 439 272 407 q 299 499 306 471 q 288 517 297 514 q 186 562 236 540 q 85 606 136 583 q 69 581 78 597 q 49 542 60 565 q 34 501 39 518 q 28 474 29 483 l 38 468 q 56 451 50 463 q 57 428 61 439 q 54 418 54 419 q 44 338 42 381 q 46 317 44 324 q 47 311 46 314 q 47 306 47 308 q 49 300 49 303 q 50 294 49 297 l 50 293 q 52 285 51 290 q 54 278 53 281 q 56 272 56 275 q 61 256 58 267 q 77 219 68 236 q 97 186 86 201 q 140 140 118 158 q 194 104 167 118 q 250 85 221 90 q 264 82 261 82 l 276 79 q 292 76 283 78 q 308 75 300 75 q 435 93 382 68 q 528 171 493 117 q 544 199 538 185 q 556 229 550 214 q 560 244 558 236 q 565 261 563 253 l 571 288 q 577 322 574 304 q 585 363 581 340 q 598 442 592 403 q 610 513 604 481 l 656 810 q 672 911 664 858 q 689 1017 679 964 q 701 1036 692 1028 q 722 1044 710 1044 q 769 1069 747 1044 q 796 1142 792 1093 m 328 318 q 322 340 322 328 q 324 364 321 353 q 331 392 326 378 q 329 404 332 404 q 324 401 326 404 q 317 392 322 399 q 307 379 313 386 l 293 363 q 299 349 294 357 q 311 335 304 342 q 328 318 318 326 z "},"k":{"ha":686,"x_min":-50,"x_max":782,"o":"m 728 1272 q 774 1179 782 1231 l 774 1176 l 774 1174 l 664 414 q 651 392 661 400 l 574 333 l 624 282 q 645 245 636 268 q 652 194 654 222 q 635 133 650 165 q 585 67 619 100 q 450 4 519 4 q 369 38 400 4 l 268 143 q 199 50 239 82 q 113 18 158 18 q 93 19 100 18 q 4 74 42 25 q -39 186 -28 117 q -37 338 -50 256 l 110 1299 q 97 1324 103 1310 q 99 1356 92 1339 q 157 1385 113 1385 q 202 1381 176 1385 q 253 1371 228 1376 q 276 1367 265 1368 q 299 1364 288 1365 q 365 1342 335 1357 q 417 1308 396 1328 q 474 1336 429 1336 q 519 1332 493 1336 q 571 1322 544 1328 q 594 1318 583 1319 q 615 1315 606 1317 q 728 1272 683 1307 m 707 1190 q 688 1218 707 1203 q 606 1249 654 1242 q 583 1251 594 1250 q 558 1256 571 1253 q 528 1261 543 1258 q 499 1265 513 1264 q 497 1257 499 1260 l 404 606 l 404 604 q 403 603 404 603 q 403 601 403 603 q 373 538 394 561 q 328 503 351 514 q 269 485 301 489 q 285 576 276 533 q 296 632 293 619 l 385 1215 l 385 1217 q 386 1221 386 1218 l 386 1224 q 360 1266 388 1243 q 288 1296 333 1289 q 265 1300 276 1299 q 240 1304 253 1301 q 209 1310 225 1307 q 178 1315 193 1313 q 179 1300 179 1311 l 29 328 q 28 203 19 261 q 60 114 36 146 q 103 86 75 90 q 108 85 106 86 q 113 85 110 85 q 174 119 144 85 q 225 214 204 153 q 249 236 229 232 q 257 238 251 238 q 281 226 272 238 l 418 85 q 450 72 431 72 q 538 117 493 72 q 569 156 558 138 q 583 190 581 174 q 583 217 586 206 q 575 235 581 228 l 499 314 q 489 340 489 324 q 503 364 492 356 l 599 438 l 706 1182 q 707 1183 707 1182 l 707 1188 l 707 1190 z "},"n":{"ha":682,"x_min":-54,"x_max":769,"o":"m 608 1363 q 676 1342 646 1357 q 728 1307 707 1328 q 759 1261 749 1286 q 765 1210 769 1236 q 703 799 732 988 q 678 636 690 718 q 654 483 665 554 q 634 356 643 411 q 621 271 625 300 q 596 173 614 221 q 551 88 578 125 q 488 26 524 50 q 406 1 451 3 q 367 13 386 1 q 330 42 347 24 q 297 83 313 60 q 268 128 281 106 q 198 33 239 67 q 110 0 157 0 q 101 1 106 0 q 90 1 96 1 q 1 57 35 10 q -43 172 -32 101 q -42 325 -54 242 l 107 1297 q 94 1324 100 1308 q 96 1356 89 1339 q 156 1385 110 1385 q 201 1381 175 1385 q 253 1371 226 1376 q 297 1363 281 1367 q 353 1343 324 1360 q 411 1307 383 1326 q 402 1330 404 1318 q 407 1356 400 1342 q 465 1385 419 1385 q 510 1381 485 1385 q 563 1371 536 1376 q 608 1363 588 1367 m 697 1221 q 672 1265 700 1242 q 597 1296 644 1289 q 550 1304 575 1297 q 517 1310 533 1307 q 486 1314 501 1313 q 486 1299 489 1307 l 479 1247 q 468 1193 476 1222 q 443 1144 460 1164 q 442 1168 446 1156 q 431 1193 439 1179 q 407 1224 422 1207 q 382 1243 397 1232 q 350 1265 367 1254 q 317 1285 333 1276 q 288 1296 300 1293 q 239 1304 267 1297 q 208 1310 224 1307 q 176 1314 192 1313 q 176 1299 179 1307 l 26 314 q 24 188 15 246 q 56 99 32 131 q 100 69 74 74 l 110 69 q 174 107 146 69 q 219 190 203 144 q 226 211 222 199 q 234 238 231 224 q 241 265 238 251 q 244 290 244 279 q 260 283 250 292 q 279 258 267 276 q 308 199 292 239 q 363 109 335 147 q 406 71 390 71 q 459 89 435 71 q 502 137 483 107 q 534 204 521 167 q 553 281 547 242 q 559 321 553 281 q 575 427 565 361 q 598 577 585 493 q 624 749 611 661 q 651 922 638 838 q 674 1072 664 1006 q 691 1179 685 1139 q 697 1221 697 1219 z "},"p":{"ha":679,"x_min":-49,"x_max":761,"o":"m 757 1015 q 760 978 760 997 q 761 939 760 960 q 759 871 761 906 q 754 796 757 836 q 740 663 749 729 q 715 525 731 596 q 701 453 708 485 q 685 389 693 421 l 681 375 q 678 367 679 371 q 675 358 676 363 q 660 326 669 343 q 642 297 653 311 q 621 268 632 282 q 522 189 582 221 q 371 149 453 151 q 285 157 324 149 q 122 6 231 6 q 86 10 104 6 q 40 28 67 14 q -9 73 13 42 q -40 158 -31 104 q -29 294 -49 211 l 194 1292 q 183 1319 188 1303 q 188 1350 179 1335 q 204 1367 193 1358 q 239 1375 215 1375 q 306 1364 264 1375 q 390 1383 344 1386 l 397 1383 l 399 1383 q 406 1382 404 1383 q 519 1353 461 1378 q 564 1331 543 1342 q 606 1304 585 1319 q 625 1290 617 1297 q 643 1274 633 1282 l 663 1257 q 679 1240 671 1249 q 694 1219 688 1231 q 715 1184 707 1200 q 728 1156 722 1168 q 736 1131 732 1143 q 743 1103 740 1118 q 757 1015 753 1063 m 689 801 q 694 872 692 839 q 696 938 696 906 q 694 975 694 957 q 692 1010 694 993 q 687 1051 689 1033 q 679 1088 685 1069 q 667 1132 675 1110 q 657 1155 663 1143 q 640 1182 651 1167 q 629 1197 635 1190 q 617 1210 624 1203 l 600 1225 q 585 1238 593 1232 q 568 1250 576 1243 q 493 1293 531 1278 q 447 1310 469 1304 q 400 1318 424 1315 l 397 1318 l 394 1318 l 393 1318 l 390 1318 l 388 1318 l 383 1318 q 333 1304 353 1318 q 331 1303 332 1304 l 329 1303 q 303 1297 319 1294 q 281 1303 292 1300 q 260 1308 271 1306 q 260 1289 264 1297 l 33 281 q 24 215 26 249 q 26 153 21 182 q 49 102 32 124 q 100 74 67 81 q 112 71 107 71 q 122 71 117 71 q 140 73 128 71 q 168 88 153 75 q 199 126 183 100 q 229 201 215 153 q 210 227 217 213 q 206 258 203 242 q 224 249 214 254 q 242 240 232 244 q 267 229 253 235 q 274 228 271 229 q 368 214 315 214 q 490 246 435 217 q 572 310 539 272 q 588 332 581 321 q 603 356 596 343 q 608 368 606 363 q 614 381 611 374 q 616 388 615 383 q 618 394 617 392 l 621 406 q 651 538 638 465 q 674 672 665 607 q 689 801 683 736 m 483 994 q 485 968 485 982 q 486 939 486 954 q 485 883 486 913 q 481 821 483 854 q 467 703 476 763 q 446 579 458 643 q 433 517 439 547 q 419 463 426 488 l 419 460 l 418 458 q 417 454 418 456 q 408 436 414 443 q 342 392 383 392 q 300 406 324 392 q 285 440 281 417 l 414 1014 l 413 1014 q 422 1063 419 1046 q 425 1088 425 1079 q 424 1100 425 1097 q 452 1090 442 1101 q 469 1063 463 1078 q 479 1021 476 1044 q 481 1008 481 1014 q 483 994 482 1001 z "},"q":{"ha":632,"x_min":-46,"x_max":750,"o":"m 733 1193 q 736 1086 750 1142 q 732 1075 733 1081 q 728 1064 731 1069 l 728 1063 q 724 1051 726 1060 q 722 1050 722 1051 q 717 1042 719 1044 q 692 1014 706 1025 q 668 999 681 1006 q 642 989 656 992 q 643 988 642 988 q 689 929 669 964 q 706 771 721 861 q 649 426 678 597 q 588 65 619 254 l 588 64 q 563 24 583 43 q 485 6 542 6 q 428 9 457 6 q 371 17 399 13 l 363 18 q 261 106 276 32 l 260 106 q 242 106 251 106 q 224 107 233 106 l 201 110 l 200 111 l 193 111 q 175 116 183 114 q 158 121 167 118 q 28 197 78 144 q -42 344 -31 258 q -40 426 -46 388 l -6 622 l 65 1033 q 72 1062 68 1049 q 81 1089 75 1075 q 126 1190 97 1142 q 203 1285 158 1243 q 228 1307 215 1296 q 257 1326 242 1318 q 272 1336 264 1332 q 288 1344 281 1340 l 304 1353 l 313 1357 l 314 1357 l 322 1361 q 488 1385 401 1392 q 642 1328 576 1376 q 733 1194 708 1276 l 733 1193 m 674 1103 q 672 1172 682 1136 l 671 1174 l 671 1175 l 671 1176 q 601 1275 651 1240 q 547 1306 578 1294 q 482 1319 517 1317 q 347 1300 411 1326 l 331 1293 q 324 1290 328 1292 q 318 1288 321 1289 q 292 1272 304 1281 q 269 1256 281 1265 q 247 1238 258 1247 q 182 1157 213 1204 q 160 1114 169 1136 q 142 1068 150 1092 q 129 1021 133 1044 l 110 907 l 24 417 q 24 353 19 382 q 40 293 26 321 q 75 242 54 265 q 176 183 117 200 l 206 175 l 225 172 l 232 172 q 245 171 239 171 q 258 171 251 171 l 272 171 q 278 172 275 171 q 283 172 281 172 l 286 172 q 290 174 288 174 q 294 173 293 174 q 299 172 296 172 q 325 178 313 175 q 347 185 338 182 q 367 192 358 189 q 354 158 367 172 q 324 135 342 144 q 331 102 324 115 q 372 83 339 89 l 381 82 q 434 74 407 78 q 485 69 461 69 q 513 72 506 69 q 524 76 521 75 q 585 437 556 265 q 642 782 614 608 q 644 847 649 815 q 629 901 640 878 q 603 936 617 925 q 565 951 585 950 q 540 951 550 953 q 518 944 529 949 q 481 914 499 936 q 453 867 465 894 q 436 811 442 840 q 398 583 417 694 q 363 371 379 471 q 350 351 360 358 q 329 343 340 343 q 310 344 319 344 q 292 346 301 344 q 281 348 285 347 q 272 350 276 349 q 261 353 267 350 q 247 364 253 357 q 242 369 243 365 q 235 383 236 378 q 232 394 232 392 q 233 403 232 400 l 238 429 l 333 983 l 335 988 l 335 989 l 336 993 q 340 1007 338 999 q 362 1057 347 1033 q 392 1096 376 1081 q 394 1097 393 1097 q 396 1099 394 1097 q 446 1145 413 1118 q 515 1179 479 1172 q 493 1153 501 1167 q 483 1128 486 1142 q 490 1100 479 1114 q 501 1090 493 1096 q 576 1050 538 1058 q 600 1047 590 1047 q 650 1065 631 1047 q 664 1079 656 1068 q 667 1082 664 1079 q 668 1088 667 1086 q 671 1094 669 1090 q 674 1103 672 1099 m 504 1008 q 458 1040 483 1019 q 451 1047 456 1043 q 443 1054 447 1050 q 440 1052 442 1053 q 436 1049 439 1051 q 418 1024 428 1040 q 401 988 408 1008 q 399 978 401 983 l 397 971 l 300 411 q 303 410 301 410 q 336 609 318 504 q 372 822 354 714 q 394 894 379 860 q 431 956 408 929 q 492 1004 457 988 l 504 1008 z "},"r":{"ha":690,"x_min":-39,"x_max":726,"o":"m 715 947 q 722 883 719 915 q 725 814 725 850 q 726 751 726 782 q 722 686 725 719 l 718 639 q 717 626 717 632 q 715 615 717 619 q 696 533 710 576 q 614 381 667 446 q 603 367 608 374 q 590 354 597 361 q 596 331 593 344 q 605 298 600 315 q 615 261 610 281 q 633 204 625 233 q 646 150 642 175 q 615 56 654 99 q 571 24 600 40 q 492 4 542 7 l 471 4 q 376 21 415 4 q 331 54 344 35 q 313 90 317 74 q 303 130 310 104 q 285 192 296 156 q 257 124 274 156 q 218 68 240 92 q 169 31 196 44 q 113 17 143 17 q 92 18 99 17 q 24 53 53 25 q -21 126 -6 81 q -37 217 -35 167 q -31 322 -39 268 l 117 1231 q 104 1256 110 1242 q 106 1286 99 1271 q 161 1314 118 1314 q 205 1310 181 1314 q 254 1300 229 1306 q 267 1297 261 1299 q 281 1294 274 1296 l 282 1297 l 282 1299 q 285 1307 282 1299 q 288 1311 285 1308 l 288 1313 q 333 1361 304 1342 q 400 1381 364 1381 l 403 1381 q 471 1364 439 1381 q 475 1361 474 1361 q 479 1358 478 1358 q 551 1303 518 1335 q 613 1232 585 1271 q 683 1088 657 1167 q 702 1019 694 1054 q 715 947 710 985 m 657 690 q 661 813 661 754 q 658 877 660 846 q 651 938 656 908 q 639 1005 646 974 q 622 1067 632 1036 q 560 1194 599 1136 q 446 1303 510 1264 l 444 1303 l 443 1303 q 442 1304 443 1304 q 439 1307 439 1307 l 438 1307 q 403 1317 421 1317 l 401 1317 q 368 1306 381 1314 q 344 1279 353 1296 l 343 1279 l 339 1263 q 338 1257 339 1260 q 338 1251 338 1254 q 337 1249 338 1250 q 336 1247 336 1249 q 342 1221 332 1228 q 358 1213 353 1214 l 275 1229 q 259 1233 268 1232 q 242 1236 250 1233 q 182 1247 210 1243 q 182 1233 183 1239 l 33 311 q 28 223 26 265 q 42 147 31 181 q 63 107 49 128 q 103 82 76 86 l 113 82 q 156 99 135 82 q 192 143 176 115 q 220 205 208 171 q 239 275 232 239 q 253 296 242 288 q 276 301 263 304 q 288 300 279 301 q 300 297 296 299 q 329 274 322 294 l 331 267 q 360 165 349 206 q 376 104 371 124 q 382 94 378 100 q 401 81 386 88 q 428 73 411 76 q 471 69 446 69 l 488 69 q 567 100 544 74 q 581 122 578 111 q 582 139 583 132 q 570 188 578 161 q 554 243 563 215 q 542 281 547 263 q 533 317 536 300 q 526 343 528 332 l 524 356 q 532 388 519 375 q 548 404 540 396 q 563 421 556 413 q 633 553 608 476 q 651 625 646 589 q 652 633 651 629 q 654 644 653 638 l 657 690 m 424 1004 q 453 811 450 925 q 453 760 453 786 q 450 706 453 735 l 447 668 l 446 667 l 446 660 l 446 658 q 441 639 443 649 q 436 619 439 629 q 401 551 424 581 q 388 538 394 544 q 372 525 381 531 q 335 483 346 501 q 319 450 324 464 q 318 421 314 435 q 284 456 292 429 q 278 510 276 482 q 288 582 279 543 l 289 582 l 357 1008 q 386 1035 361 1032 q 419 1014 410 1038 q 422 1009 421 1011 q 424 1004 422 1007 m 385 711 q 387 751 386 732 q 388 790 388 771 l 357 603 q 367 619 363 610 q 375 639 371 628 q 378 653 378 646 q 381 667 379 660 l 383 685 l 385 711 m 361 1213 l 358 1213 l 361 1213 z "},"u":{"ha":765,"x_min":-42,"x_max":893,"o":"m 724 1339 q 876 1182 893 1306 l 876 1178 q 875 1175 876 1178 l 758 240 q 758 237 758 238 q 757 233 757 236 l 754 219 l 753 213 q 732 151 746 178 q 663 68 707 104 q 611 35 635 46 q 568 19 588 25 q 529 10 549 13 q 490 4 510 7 q 463 3 482 4 q 421 3 444 3 q 367 3 400 3 q 301 6 335 4 q 236 10 267 7 q 188 17 206 13 q 157 26 171 22 q 129 38 143 31 q 96 53 114 44 q 58 76 78 61 q 17 114 35 93 q -24 178 -8 143 q -39 268 -42 221 q -32 330 -39 271 q -15 481 -25 389 q 9 687 -4 574 q 35 912 22 800 q 59 1123 47 1024 q 78 1285 71 1222 q 63 1313 69 1296 q 67 1350 57 1331 q 83 1369 72 1363 q 106 1379 94 1376 q 126 1383 117 1382 q 142 1383 136 1383 q 192 1379 165 1383 q 246 1372 219 1375 q 256 1370 251 1371 q 265 1368 260 1369 q 418 1203 435 1343 l 418 1199 l 418 1194 l 321 325 q 340 319 326 322 q 385 317 354 317 q 400 315 396 317 q 410 316 407 315 q 417 317 414 317 l 471 750 q 488 911 479 829 q 506 1065 497 993 q 520 1192 514 1138 q 529 1272 526 1247 q 525 1325 514 1300 q 561 1351 538 1347 q 596 1356 585 1356 q 656 1351 624 1356 q 717 1340 688 1346 l 724 1339 m 810 1192 q 811 1211 811 1200 q 802 1233 811 1222 q 772 1255 793 1244 q 711 1272 750 1265 l 704 1274 q 649 1284 679 1279 q 596 1289 619 1289 q 597 1272 597 1283 q 590 1208 596 1264 q 574 1074 583 1153 q 556 906 565 996 q 538 742 546 817 l 483 315 q 513 310 500 311 q 533 311 525 310 q 549 317 543 313 q 536 285 550 297 q 502 266 522 274 q 460 255 482 258 q 425 250 439 251 q 411 249 418 249 q 400 249 404 249 l 399 249 l 394 249 q 383 250 393 250 q 359 250 372 250 q 331 253 346 250 q 301 258 325 254 q 252 272 278 263 q 206 296 226 281 q 185 333 185 311 q 201 326 192 329 q 222 324 210 324 q 253 326 235 324 q 254 333 253 331 l 351 1201 l 351 1204 l 351 1208 q 353 1211 351 1208 q 353 1237 354 1224 q 344 1263 353 1250 q 315 1285 336 1275 q 256 1303 294 1296 q 235 1306 249 1303 q 186 1313 211 1310 q 142 1317 161 1317 l 136 1317 l 139 1314 q 144 1288 147 1304 q 122 1094 135 1201 q 97 875 110 986 q 72 657 85 764 q 50 465 60 550 q 34 326 40 381 q 28 265 28 271 q 39 204 25 233 q 67 158 50 176 q 81 144 74 151 q 99 131 89 138 q 128 113 114 119 q 154 99 142 106 q 178 90 167 94 q 206 82 190 86 q 283 74 225 76 q 421 71 342 71 l 486 71 q 547 83 518 74 q 581 96 563 88 q 621 121 600 104 q 672 182 653 144 q 688 226 683 204 l 690 243 l 690 244 l 690 246 l 692 246 l 810 1185 l 810 1189 l 810 1192 z "},"w":{"ha":904,"x_min":1,"x_max":1071,"o":"m 1065 1182 q 1065 1180 1065 1181 q 1064 1178 1064 1179 l 836 89 q 815 64 833 71 q 751 44 783 54 q 691 24 718 33 q 645 9 664 15 q 624 3 626 3 q 607 1 619 1 q 565 8 589 1 q 516 24 540 15 q 469 44 492 33 q 433 61 447 54 q 365 31 392 42 q 320 13 338 19 q 292 3 303 6 q 276 1 282 1 q 264 4 272 1 q 231 19 256 7 q 159 60 206 32 q 32 138 113 88 q 18 158 21 144 q 6 228 10 190 q 4 306 1 265 l 44 1294 q 29 1319 36 1304 q 29 1353 22 1335 q 44 1372 35 1365 q 65 1382 54 1379 q 88 1385 76 1385 q 107 1386 99 1386 q 141 1385 124 1386 q 176 1382 158 1383 q 199 1380 189 1381 q 221 1379 210 1379 q 336 1342 288 1376 q 388 1246 390 1303 l 388 1243 l 388 1239 l 379 1082 q 433 1128 396 1111 q 519 1146 471 1146 q 537 1146 528 1146 q 556 1143 546 1146 q 665 1097 621 1135 q 690 1071 681 1083 l 738 1294 q 726 1323 731 1306 q 731 1356 722 1340 q 748 1374 736 1365 q 785 1382 760 1382 q 830 1376 804 1382 q 882 1364 856 1371 q 904 1359 893 1361 q 925 1354 915 1357 q 988 1330 960 1347 q 1035 1290 1017 1313 q 1063 1240 1054 1267 q 1065 1185 1071 1213 l 1065 1182 m 1001 1199 q 981 1253 1007 1226 q 911 1289 954 1281 q 889 1294 900 1292 q 867 1300 878 1297 q 833 1308 850 1304 q 803 1315 817 1313 q 804 1292 807 1306 l 631 463 q 629 458 631 460 q 633 433 629 442 q 643 418 638 424 q 658 411 649 413 q 606 415 626 400 q 578 444 586 429 q 565 475 563 456 l 643 1006 l 643 1010 l 643 1011 q 624 1047 646 1028 q 546 1078 593 1071 q 533 1080 539 1079 q 519 1081 526 1081 q 459 1069 482 1081 q 433 1042 436 1057 l 433 1039 l 369 603 l 369 601 l 346 471 q 344 465 346 467 l 346 465 q 325 429 338 444 q 297 410 314 417 q 256 411 281 403 q 271 419 265 414 q 281 435 276 425 q 283 464 285 444 q 281 478 281 472 l 321 1242 l 321 1243 l 321 1247 q 322 1250 321 1247 q 313 1272 322 1263 q 297 1288 304 1282 q 218 1313 267 1310 q 195 1315 207 1314 q 171 1317 183 1315 q 140 1319 156 1318 q 108 1319 124 1319 q 111 1303 114 1313 l 71 303 q 79 186 67 240 q 142 147 110 167 q 201 112 174 128 q 249 85 228 96 q 279 69 269 74 q 315 83 288 72 q 407 122 342 93 q 417 126 414 125 q 422 129 419 128 q 435 132 428 132 q 450 128 443 132 q 479 113 458 124 q 524 92 500 103 q 572 74 549 82 q 607 67 594 67 l 608 67 q 631 74 613 68 q 672 88 649 79 q 724 104 696 96 q 776 121 751 113 l 1000 1193 l 1000 1196 q 1001 1199 1000 1197 z "},"x":{"ha":560,"x_min":-14,"x_max":701,"o":"m 692 1197 l 554 300 q 543 281 551 288 l 490 238 q 494 44 558 115 q 399 6 458 6 q 326 18 365 6 q 246 57 288 31 q 182 31 217 42 q 111 19 147 19 q 14 61 47 19 q -12 142 -14 94 q 21 244 -11 190 l 4 260 q -7 288 -10 271 l 90 1232 q 76 1258 82 1243 q 78 1290 71 1274 q 110 1316 89 1313 q 142 1319 132 1319 q 181 1317 160 1319 q 224 1311 201 1314 q 246 1308 235 1310 q 267 1306 257 1307 q 363 1271 321 1301 l 367 1293 q 354 1320 360 1304 q 357 1353 349 1336 q 415 1381 371 1381 q 458 1377 435 1381 q 504 1368 481 1374 q 526 1364 515 1365 q 547 1361 536 1363 q 656 1307 613 1350 q 693 1204 701 1261 q 692 1202 693 1203 q 692 1200 692 1201 l 692 1197 m 629 1214 q 624 1243 632 1231 q 610 1263 617 1256 q 536 1297 582 1289 q 492 1306 514 1300 q 460 1311 476 1308 q 429 1315 443 1314 q 432 1294 433 1304 l 421 1219 l 322 447 q 293 418 318 422 q 272 422 282 417 q 260 439 263 428 q 258 444 258 442 q 258 454 257 447 l 257 454 l 258 461 q 261 493 258 472 q 268 551 264 514 q 278 644 272 589 q 294 782 285 700 q 310 912 301 844 q 325 1038 318 979 q 337 1142 332 1097 q 343 1204 342 1186 q 260 1242 314 1235 q 237 1244 249 1243 q 214 1247 225 1246 q 183 1252 199 1250 q 153 1256 167 1254 q 156 1245 156 1250 q 156 1236 156 1240 l 60 297 l 78 281 q 106 293 103 281 q 104 307 107 299 q 113 289 113 300 q 108 267 113 278 q 99 248 104 257 q 90 235 93 239 q 89 232 90 235 q 54 156 61 190 q 63 103 47 122 q 111 83 79 83 q 232 122 161 83 q 247 126 238 126 q 264 121 256 126 q 399 69 343 69 q 446 88 432 69 q 459 121 458 101 q 453 160 460 140 q 438 197 447 179 q 422 226 429 215 q 414 238 419 229 q 403 258 408 247 q 398 281 399 269 q 406 300 397 292 q 406 286 403 292 q 413 277 408 281 q 433 274 418 274 l 492 322 l 628 1206 l 628 1208 l 628 1211 q 629 1214 628 1213 z "},"y":{"ha":611,"x_min":-28,"x_max":754,"o":"m 746 1208 q 744 1204 744 1207 l 592 235 q 565 115 582 174 q 511 25 547 57 q 442 4 486 4 q 423 5 432 4 q 406 7 414 6 l 397 7 q 365 11 382 8 q 331 22 347 14 q 299 43 314 29 q 276 82 285 57 l 264 82 q 231 82 247 81 q 200 86 215 83 q 124 108 157 93 q 102 118 113 114 q 82 129 92 122 q 36 165 57 144 q -11 233 6 196 q -21 258 -18 246 q -26 285 -24 271 q -28 300 -28 292 q -28 315 -28 308 q -28 324 -28 319 q -26 333 -28 329 l -26 339 l 60 1181 q 47 1206 53 1192 q 49 1236 42 1221 q 79 1262 58 1258 q 110 1265 100 1265 q 147 1263 126 1265 q 189 1257 168 1260 q 210 1253 200 1254 q 229 1251 219 1253 q 291 1235 263 1247 q 340 1205 319 1224 q 370 1163 360 1186 q 378 1115 381 1140 l 378 1113 l 378 1108 l 336 683 l 432 1299 q 421 1325 425 1310 q 424 1356 417 1340 q 479 1382 438 1382 q 519 1378 497 1382 q 565 1369 542 1375 q 587 1365 576 1367 q 606 1363 597 1364 q 710 1311 669 1351 q 746 1211 754 1267 l 746 1208 m 685 1222 q 680 1249 688 1238 q 665 1268 672 1261 q 596 1301 640 1294 q 553 1310 575 1304 q 522 1315 538 1313 q 493 1319 506 1318 q 496 1299 499 1310 l 351 385 q 346 361 349 369 l 347 361 q 346 358 347 360 q 342 351 344 357 q 326 328 336 338 q 289 294 311 310 q 235 285 267 279 q 240 296 238 288 q 246 351 244 308 q 244 386 242 369 q 246 397 246 392 q 247 408 246 401 l 247 410 l 315 1114 l 315 1117 q 317 1119 315 1119 l 317 1122 q 292 1164 318 1143 q 224 1190 267 1185 q 202 1192 213 1192 q 179 1196 192 1193 q 149 1200 164 1199 q 121 1203 133 1201 q 124 1186 124 1197 l 36 332 l 36 331 q 35 326 35 329 l 35 322 q 34 318 35 319 q 33 314 33 317 q 34 303 33 308 q 35 293 35 299 q 39 275 36 283 q 44 258 42 267 q 79 210 57 232 q 115 182 94 194 q 130 174 122 178 q 147 165 138 169 q 210 147 174 154 q 263 143 236 143 q 279 144 271 144 q 296 146 288 144 q 300 147 297 147 q 320 140 311 147 q 332 121 329 132 q 353 79 338 86 q 403 69 368 72 l 413 68 q 427 67 419 67 q 442 67 435 67 q 463 68 457 67 q 469 72 468 69 q 494 108 483 85 q 513 157 506 131 q 524 208 519 183 q 531 244 528 232 l 683 1214 l 683 1215 q 685 1219 683 1218 l 685 1222 z "},"z":{"ha":704,"x_min":-39,"x_max":874,"o":"m 864 1232 q 865 1150 874 1193 q 851 1103 861 1126 q 831 1058 842 1081 q 807 1012 819 1035 q 785 971 794 989 l 749 906 l 724 861 l 674 774 q 574 606 624 689 q 474 444 524 524 q 490 453 481 450 q 513 458 499 457 l 547 458 q 585 457 565 458 q 622 451 604 456 q 652 435 639 446 q 671 408 665 425 q 673 399 672 404 q 672 380 674 393 q 663 341 669 367 q 642 271 656 315 q 628 231 635 250 q 617 194 622 211 q 609 167 613 178 q 604 153 606 156 q 585 112 594 131 q 563 78 575 93 q 529 44 547 58 q 519 36 524 40 q 508 29 514 32 q 501 26 507 29 l 485 22 l 479 21 q 433 13 456 15 q 386 7 410 10 q 374 7 379 7 q 361 6 368 7 l 346 6 l 318 4 q 290 3 304 4 q 263 3 276 3 l 224 3 q 185 3 204 3 q 146 4 165 3 l 129 4 l 125 4 l 118 6 q 104 8 111 7 q 90 11 97 8 q 74 17 82 14 q 57 25 65 21 q 26 46 42 32 q 1 72 11 60 q -17 99 -11 86 q -22 110 -19 104 q -26 122 -24 115 q -30 131 -29 126 q -33 142 -31 136 q -35 149 -35 146 q -36 157 -35 153 q -38 181 -39 171 q -37 199 -37 192 q -36 213 -36 207 q -35 224 -36 218 q -26 254 -31 240 q -19 275 -25 261 q -6 309 -12 294 q 7 338 0 324 q 35 389 18 360 l 47 413 l 63 438 q 64 439 63 438 l 119 525 l 171 607 q 222 688 197 647 q 272 771 247 729 q 251 767 263 768 q 228 765 240 765 q 169 773 200 765 q 108 793 138 781 q 53 822 78 806 q 13 858 28 839 q -10 897 -7 879 q -11 926 -14 915 l 32 1140 q 43 1190 36 1164 q 60 1240 50 1215 q 117 1329 79 1294 q 126 1339 121 1335 q 138 1347 132 1343 q 160 1361 147 1354 q 171 1366 165 1364 q 183 1371 176 1368 l 204 1379 q 210 1380 207 1379 q 215 1381 213 1381 q 263 1383 239 1382 q 314 1385 288 1383 l 375 1385 q 428 1386 403 1386 q 481 1386 454 1386 l 524 1385 q 549 1385 538 1385 q 574 1383 561 1385 q 629 1380 606 1382 q 672 1375 653 1378 q 764 1349 728 1367 q 826 1301 803 1329 q 839 1285 835 1293 q 851 1265 844 1279 q 864 1232 860 1249 m 801 1163 q 800 1215 806 1190 q 796 1226 797 1221 q 792 1236 794 1231 q 785 1247 790 1239 q 776 1257 779 1254 q 735 1289 761 1275 q 703 1301 721 1296 q 663 1310 686 1306 q 622 1314 643 1313 q 571 1317 600 1315 q 547 1318 560 1318 q 522 1319 535 1318 l 479 1319 l 376 1319 l 315 1318 q 269 1317 292 1317 q 222 1315 246 1317 q 214 1312 218 1313 q 206 1308 210 1311 q 190 1301 197 1307 q 183 1298 186 1300 q 176 1293 181 1296 q 163 1282 171 1290 q 121 1217 138 1260 q 107 1170 113 1193 q 96 1126 101 1147 l 90 1099 l 54 915 q 56 909 54 914 q 65 897 58 904 q 97 873 78 885 q 139 852 117 861 q 185 838 161 843 q 228 832 208 832 q 251 834 238 832 q 272 846 265 836 q 297 880 275 850 q 345 948 318 910 q 400 1026 372 986 q 444 1090 428 1065 l 444 1092 l 447 1094 q 450 1099 447 1096 q 453 1103 451 1101 q 458 1107 456 1104 q 479 1126 467 1115 q 506 1143 492 1136 q 538 1152 521 1150 q 574 1147 556 1154 q 560 1128 568 1140 q 542 1100 553 1117 q 518 1060 532 1083 l 517 1058 l 481 994 l 432 908 q 228 571 329 735 l 175 489 l 119 403 l 104 379 l 92 356 q 78 331 85 343 q 67 308 72 319 q 54 283 60 296 q 42 253 49 269 q 39 243 40 247 q 36 235 38 239 q 33 225 35 231 q 31 213 32 219 q 30 204 31 208 q 29 194 29 200 q 29 167 28 185 q 31 162 31 164 q 32 157 31 160 q 35 144 32 153 q 38 137 38 140 q 42 129 39 133 q 53 113 44 124 q 68 97 60 104 q 78 90 74 93 q 89 83 83 86 q 99 78 93 81 q 108 75 104 76 q 118 73 114 74 q 128 71 122 72 l 133 69 l 147 69 q 261 69 207 67 q 288 69 275 69 q 315 71 301 69 l 350 72 l 351 72 l 360 72 q 371 72 365 72 q 382 74 376 72 q 465 86 424 76 l 469 86 q 474 88 472 88 q 478 89 475 88 q 488 96 482 90 q 510 118 500 106 q 542 176 529 144 q 553 210 544 182 q 573 271 563 238 q 592 337 583 304 q 606 386 601 369 q 585 391 599 389 q 547 393 571 393 q 528 392 536 393 q 517 392 519 392 l 514 392 q 511 388 513 390 q 507 383 510 386 q 490 361 503 375 q 474 342 482 353 q 454 315 465 331 l 426 275 q 400 236 411 254 q 379 204 389 218 q 360 175 368 189 q 313 227 322 199 q 306 279 303 256 q 325 335 310 307 l 326 335 l 326 336 l 354 379 l 408 464 q 513 633 461 547 q 615 807 564 719 l 667 894 l 690 938 l 726 1003 q 748 1042 736 1021 q 771 1088 760 1064 q 789 1126 781 1107 q 801 1163 797 1146 z "},"A":{"ha":797,"x_min":-44,"x_max":867,"o":"m 857 1033 q 865 899 865 971 q 866 838 867 868 q 863 772 865 807 q 838 531 857 663 q 808 352 826 447 q 769 176 789 257 q 733 83 754 115 q 693 32 713 51 q 649 8 674 13 q 606 3 625 3 q 549 11 571 3 q 463 218 471 38 l 318 218 q 315 200 317 208 q 311 182 314 192 l 311 181 q 290 108 304 138 q 249 54 275 78 q 119 4 192 0 q 52 17 82 7 q -6 51 22 28 q -33 88 -25 67 q -42 134 -40 110 q -42 185 -44 158 q -35 238 -39 211 q -34 239 -35 239 q -33 240 -33 239 l -33 246 q -32 251 -32 247 q 15 488 -11 374 q 72 715 40 601 q 108 837 90 781 q 146 946 126 893 q 169 1006 157 978 q 192 1063 181 1035 q 224 1128 208 1099 q 254 1185 239 1157 l 265 1203 q 274 1215 269 1210 q 282 1226 278 1221 q 301 1251 292 1240 q 319 1274 310 1263 q 408 1349 360 1319 q 517 1383 464 1379 q 629 1374 578 1390 q 800 1226 740 1339 q 842 1117 828 1178 q 845 1102 844 1110 q 849 1088 846 1094 l 851 1069 q 855 1051 854 1060 q 857 1033 856 1042 m 796 776 q 798 839 797 808 q 799 897 799 869 q 796 965 797 933 q 790 1025 794 996 q 788 1042 789 1033 q 786 1057 788 1050 l 782 1075 q 780 1087 781 1081 q 776 1100 779 1093 q 761 1151 769 1128 q 742 1194 753 1175 q 610 1308 694 1282 q 524 1317 569 1321 q 443 1290 479 1313 q 369 1229 404 1268 q 353 1209 361 1219 q 338 1188 346 1199 q 330 1177 333 1182 q 322 1167 326 1172 l 313 1149 q 254 1036 282 1100 q 231 982 243 1010 q 208 922 219 954 q 138 697 171 822 q 81 472 106 585 q 35 240 56 360 l 35 238 l 33 235 l 33 232 l 32 228 q 24 149 25 182 q 38 103 22 115 q 76 81 57 88 q 124 71 96 74 q 203 103 167 68 q 230 138 221 118 q 244 190 239 158 q 246 193 244 192 q 251 226 249 210 q 257 258 254 242 q 269 278 260 269 q 290 286 278 286 l 496 285 q 519 276 510 285 q 529 251 529 267 q 529 238 529 244 q 531 224 529 231 q 547 110 533 142 q 571 74 561 78 q 585 71 576 72 q 606 69 594 69 q 632 73 622 69 q 646 79 642 76 q 677 119 661 94 q 704 192 693 144 q 742 364 724 271 q 771 540 760 457 q 787 663 781 606 q 796 776 793 721 m 576 1000 q 581 951 579 976 q 582 897 582 925 q 583 846 583 872 q 579 790 582 819 q 571 685 576 739 q 557 569 565 631 q 555 550 556 560 q 551 531 554 540 q 550 525 551 526 q 549 503 550 518 q 543 463 547 489 q 535 479 540 472 q 519 492 529 486 q 490 501 510 499 l 369 501 q 337 494 350 499 q 315 488 324 490 q 300 479 306 483 q 309 507 306 494 q 315 528 313 519 l 319 544 q 332 590 326 568 q 343 632 338 613 q 376 743 360 692 q 410 843 392 794 q 429 895 419 871 q 449 943 439 919 q 494 1033 472 997 l 501 1046 q 503 1047 503 1046 q 506 1051 506 1050 q 508 1054 507 1053 q 526 1063 515 1061 q 544 1063 536 1065 q 568 1040 563 1056 q 569 1038 569 1039 q 571 1035 569 1036 l 571 1032 l 572 1024 q 574 1011 574 1017 q 576 1000 575 1006 m 513 793 q 515 847 515 821 q 515 896 515 872 q 515 911 515 904 q 514 925 515 918 q 513 920 513 922 q 511 915 513 918 q 472 819 490 871 q 440 723 456 774 q 408 614 424 672 q 402 592 406 603 q 396 568 399 581 l 489 568 q 490 574 489 571 q 490 579 490 576 q 504 692 499 639 q 513 793 510 744 z "}}}
